SplineFontDB: 3.2
FontName: SkyLuke
FullName: Sky Luke
FamilyName: SkyLuke
Weight: Regular
Copyright: CC-0 public domain\n
UComments: "2020-6-18: Created with FontForge (http://fontforge.org)"
Version: 001.000
ItalicAngle: 0
UnderlinePosition: -83.3333
UnderlineWidth: 41.6667
Ascent: 800
Descent: 200
InvalidEm: 0
LayerCount: 2
Layer: 0 0 "Back" 1
Layer: 1 0 "Fore" 0
XUID: [1021 178 1911899458 7554]
FSType: 0
OS2Version: 0
OS2_WeightWidthSlopeOnly: 0
OS2_UseTypoMetrics: 1
CreationTime: 1592502783
ModificationTime: 1592591405
PfmFamily: 17
TTFWeight: 400
TTFWidth: 5
LineGap: 90
VLineGap: 0
OS2TypoAscent: 0
OS2TypoAOffset: 1
OS2TypoDescent: 0
OS2TypoDOffset: 1
OS2TypoLinegap: 90
OS2WinAscent: 0
OS2WinAOffset: 1
OS2WinDescent: 0
OS2WinDOffset: 1
HheadAscent: 0
HheadAOffset: 1
HheadDescent: 0
HheadDOffset: 1
OS2Vendor: 'PfEd'
Lookup: 4 0 1 "'liga' Standard Ligatures in Latin lookup 0" { "'liga' Standard Ligatures in Latin lookup 0-1"  } ['liga' ('DFLT' <'dflt' > 'latn' <'dflt' > ) ]
Lookup: 258 0 0 "'kern' Horizontal Kerning in Latin lookup 0" { "'kern' Horizontal Kerning in Latin lookup 0-1" [180,18,2] "'kern' Horizontal Kerning in Latin lookup 0-2" [180,18,2] } ['kern' ('DFLT' <'dflt' > 'latn' <'dflt' > ) ]
MarkAttachClasses: 1
DEI: 91125
LangName: 1033 "" "" "" "Sky Luke" "" "" "" "" "" "" "" "" "" "" "" "" "" "" "" "A Jedi acknowledges pride, for quiet humility belies unexorcized vanity."
Encoding: UnicodeFull
UnicodeInterp: none
NameList: AGL For New Fonts
DisplaySize: -72
AntiAlias: 1
FitToEm: 0
WinInfo: 0 25 10
BeginPrivate: 0
EndPrivate
BeginChars: 1114113 93

StartChar: A
Encoding: 65 65 0
Width: 866
VWidth: 833
Flags: W
HStem: -22 135<403.825 536.298 539.532 682.892> -11 108<299.469 682.892> -2 106.733<168.271 250.566> 2 111<183.75 536.298 539.532 570.22> 693 20G<431.767 444.767> 693 20G<431.767 444.767>
VStem: 247.267 105<442.567 527.879>
LayerCount: 2
Fore
SplineSet
168.266601562 116 m 0x22
 168.266601562 107.397460938 174.662109375 104.733398438 183.305664062 104.733398438 c 0x22
 192.747070312 104.733398438 204.869140625 107.912109375 214.266601562 110 c 0
 224.266601562 112 236.266601562 113 251.266601562 113 c 0x12
 288.266601562 113 329.266601562 110 386.266601562 107 c 0
 454.266601562 104 496.266601562 97 538.266601562 97 c 0x42
 565.266601562 97 591.266601562 99 624.266601562 108 c 0
 635.266601562 111 647.266601562 113 655.266601562 113 c 0
 667.266601562 113 675.266601562 110 683.266601562 116 c 0
 690.787109375 121.231445312 693.603515625 127.638671875 693.603515625 134.41796875 c 0
 693.603515625 148.373046875 681.669921875 163.904296875 674.266601562 174 c 0
 669.266601562 181 655.266601562 204 644.266601562 225 c 0
 567.266601562 372 501.266601562 459 420.266601562 608 c 4
 402.266601562 641 388.266601562 671 388.266601562 676 c 0
 388.266601562 689 399.266601562 703 408.266601562 708 c 4
 413.266601562 711 426.266601562 713 437.266601562 713 c 0
 452.266601562 713 462.266601562 709 483.266601562 698 c 4
 507.266601562 685 510.266601562 683 522.266601562 660 c 4
 600.266601562 510 663.266601562 400 747.266601562 259 c 0
 773.266601562 216 783.266601562 193 813.266601562 152 c 0
 826.266601562 134 840.266601562 114 844.266601562 106 c 0
 852.266601562 93 852.266601562 92 846.266601562 78 c 0
 843.266601562 70 839.266601562 57 838.266601562 50 c 0
 836.266601562 34 804.266601562 -10 791.266601562 -13 c 0
 757.266601562 -20 727.266601562 -22 698.266601562 -22 c 0x8a
 636.266601562 -22 581.266601562 -11 511.266601562 -11 c 0x42
 500.266601562 -11 479.266601562 -8 465.266601562 -5 c 0
 453.266601562 -2 385.266601562 2 295.266601562 2 c 0x12
 227.266601562 2 159.266601562 0 132.266601562 -2 c 0
 112.266601562 -4 98.2666015625 -5 89.2666015625 -5 c 0
 80.2666015625 -5 75.2666015625 -4 72.2666015625 -2 c 0
 68.2666015625 1 60.2666015625 9 56.2666015625 16 c 0
 52.2666015625 23 41.2666015625 38 32.2666015625 49 c 0
 22.7138671875 61.1005859375 16 69.14453125 16 78.041015625 c 0
 16 83.1142578125 18.1826171875 88.4638671875 23.2666015625 95 c 0
 27.2666015625 100 37.2666015625 119 46.2666015625 138 c 0
 55.2666015625 157 70.2666015625 183 79.2666015625 195 c 0
 128.266601562 260 165.266601562 348 207.266601562 414 c 0
 220.266601562 434 241.266601562 463 247.266601562 486 c 0
 253.671875 511.620117188 262.588867188 539.752929688 292.403320312 539.752929688 c 0
 295.172851562 539.752929688 298.122070312 539.509765625 301.266601562 539 c 0
 328.266601562 535 352.266601562 517 352.266601562 486 c 0
 352.266601562 466 314.266601562 398 307.266601562 382 c 0
 273.266601562 304 221.266601562 227 182.266601562 151 c 0
 172.266601562 131 168.266601562 122 168.266601562 116 c 0x22
EndSplineSet
Validated: 1
EndChar

StartChar: B
Encoding: 66 66 1
Width: 676
Flags: W
HStem: -12 133<72.8275 453.9> 309 140<158.286 390.744> 641 114<134.534 450.781>
VStem: 500.67 91.3301<522.984 600.577> 557 103.444<187.059 271.604>
LayerCount: 2
Fore
SplineSet
339 755 m 0xf0
 420 755 491 743 533 705 c 0
 549 690 577 650 586 629 c 0
 591 618 592 606 592 580 c 0xf0
 592 543 590 532 580 508 c 0
 566 475 570 471 551 446 c 0
 542.900390625 435.740234375 538.299804688 430.4375 538.299804688 425.369140625 c 0
 538.299804688 421.049804688 541.639648438 416.900390625 549 410 c 0
 555 405 570 392 583 382 c 0
 630 348 660 304 660 224 c 0
 660 217.333007812 660.444335938 210.666992188 660.444335938 203.111328125 c 0
 660.444335938 199.333007812 660.333007812 195.333007812 660 191 c 0
 658 148 656 136 650 127 c 0
 641 113 572 46 557 38 c 0
 536 27 506 15 478 9 c 0
 425 -3 342 -12 263 -12 c 0
 211 -12 161 -8 121 2 c 0
 98 8 54 9 40 21 c 0
 27 32 16 55 16 79 c 0
 16 101 21 127 35 133 c 0
 39 135 44 136 52 136 c 0
 61 136 74 135 94 133 c 0
 155 127 220 121 282 121 c 0
 364 121 442 131 502 162 c 0
 519 171 533 182 543 194 c 0
 553 207 557 215 557 224 c 0xe8
 557 243 533 280 521 289 c 0
 501 304 473 309 432 309 c 0
 383 309 314 304 257 304 c 0
 197 304 165 306 145 332 c 0
 139 339 130 378 130 396 c 0
 130 411 149 438 158 444 c 0
 164 448.5 176.1875 449.0625 188.65625 449.0625 c 0
 192.8125 449.0625 197 449 201 449 c 0
 299 449 385 455 451 501 c 0
 469 513 487 529 492 536 c 0
 497.936523438 544.635742188 500.669921875 550.649414062 500.669921875 557.342773438 c 0
 500.669921875 563.051757812 498.682617188 569.254882812 495 578 c 0
 492 585 486 594 481 599 c 0
 447 631 387 641 321 641 c 0
 237 641 141 626 68 622 c 1
 56 633 l 2
 46 643 44 647 42 672 c 0
 41 681 41 687 41 692 c 0
 41 701 42 703 46 707 c 0
 50 711 69 718 89 723 c 0
 152 739 249 755 339 755 c 0xf0
EndSplineSet
Validated: 1
EndChar

StartChar: C
Encoding: 67 67 2
Width: 836
Flags: W
HStem: -29 143<312.893 584.69> 694 20G<214 223> 694 20G<214 223>
VStem: 16 95<227.154 425.076>
LayerCount: 2
Fore
SplineSet
49 172 m 0xd0
 49 179 27 216 27 226 c 0
 27 254 20 267 17 306 c 0
 16 316 16 324 16 332 c 0
 16 349 17 364 20 383 c 0
 36 483 69 554 112 629 c 0
 134 667 150 685 186 703 c 0
 198 709 212 714 216 714 c 0
 230 714 258 696 264 687 c 0
 269 680 274 661 274 647 c 0
 274 640 273 634 270 628 c 0
 267 621 255 608 244 599 c 0
 233 590 217 576 209 568 c 0
 174 533 111 410 111 311 c 0
 111 279 117 250 133 227 c 0
 185 150 307 114 428 114 c 0
 540 114 652 145 708 204 c 0
 720 217 729 231 732 240 c 0
 735.6875 254.749023438 744.47265625 270.346679688 760.706054688 270.346679688 c 0
 762.083007812 270.346679688 763.513671875 270.234375 765 270 c 0
 783 267 807 242 811 225 c 0
 813 217 816 196 820 149 c 1
 801 117 l 2
 762 50 679 -17 585 -27 c 0
 567 -29 545 -29 521 -29 c 0
 366 -29 222 1 132 70 c 0
 104 91 73 116 58 146 c 0
 53 157 49 169 49 172 c 0xd0
EndSplineSet
Validated: 1
EndChar

StartChar: D
Encoding: 68 68 3
Width: 734
Flags: W
HStem: 552 144<101.649 411.792> 562 134<134.905 411.792>
VStem: 603 115<281.008 445.843>
LayerCount: 2
Fore
SplineSet
209 562 m 0x60
 192 562 153 552 134 552 c 0
 103.422851562 552 80.78125 590.235351562 80.78125 625.651367188 c 0
 80.78125 631.932617188 81.4931640625 638.125 83 644 c 0
 85 652 94 667 118 695 c 1
 145 696 l 2
 152 696 160 696 168 696 c 0
 178 696 190 696 197 696 c 0xa0
 390 684 506 677 613 577 c 0
 653 540 667 525 670 514 c 0
 672 506 680 490 688 476 c 0
 703 451 718 399 718 359 c 0
 718 324 714 309 701 281 c 0
 676 226 663 175 621 136 c 0
 609 125 585 106 567 95 c 0
 460 29 357 6 193 -8 c 0
 173 -10 148 -11 116 -11 c 0
 100 -11 83 -11 64 -10 c 1
 49 7 l 2
 35 22 16 48 16 72 c 0
 16 89 27 107 40 112 c 0
 46 114 80 118 114 120 c 0
 291 132 448 143 546 231 c 0
 563 247 572 259 603 322 c 1
 602 366 l 2
 601 408 601 411 587 436 c 0
 529 545 362 557 210 562 c 0
 209 562 l 0x60
EndSplineSet
Validated: 1
EndChar

StartChar: I
Encoding: 73 73 4
Width: 798
Flags: W
HStem: 0 127<424.964 716.581> 4 120<54.2344 310.148> 508 114<58 296.76>
VStem: 316 99<135.193 502.76>
LayerCount: 2
Fore
SplineSet
224 9 m 0xb0
 176 9 117 4 79 4 c 0
 64 4 59 6 54 9 c 0
 42 16 16 52 16 70 c 0
 16 92 24 117 39 124 c 0x70
 59 133 299 123 311 135 c 0
 315 139 316 151 316 206 c 0
 316 276 314 400 310 440 c 0
 306 486 303 498 297 503 c 0
 292 507 280 508 152 508 c 0
 126 508 95 508 58 508 c 1
 47 519 l 2
 36 530 26 558 26 581 c 0
 26 595 31 617 36 622 c 0
 41 626 68 627 192 628 c 0
 275 629 369 631 400 634 c 0
 483 641 550 655 628 660 c 4
 633 660 641 659 648 656 c 0
 661 650 701 617 705 603 c 0
 707 596 706 588 701 577 c 0
 696 565 690 559 676 551 c 0
 666 545 648 539 638 537 c 0
 570 525 582 517 508 517 c 0
 488 517 463 518 427 519 c 1
 416 508 l 2
 407 498 405 495 407 484 c 0
 408 477 414 393 415 317 c 0
 416 219 415 187 419 168 c 0
 422 153 425 141 425 139 c 0
 425 137 428 134 433 131 c 0
 437 128 442 127 455 127 c 0
 544 127 640 148 712 148 c 0
 718 148 727 145 733 142 c 0
 744 136 779 103 782 90 c 0
 783 85 782 73 779 64 c 0
 774 49 770 46 752 35 c 0
 697 4 655 0 579 0 c 0
 434 0 371 9 224 9 c 0xb0
EndSplineSet
Validated: 1
EndChar

StartChar: E
Encoding: 69 69 5
Width: 730
Flags: W
HStem: -10 137<134.507 625.743> 267 142<191.369 581.369> 280 140<65 306.251> 561 129<46.1898 556.691 560.515 688.717> 562 138<257.718 672.62>
VStem: 16 112<104 250.678>
LayerCount: 2
Fore
SplineSet
663 561 m 0x94
 646 561 630 562 599 562 c 0x8c
 531 562 421 561 320 561 c 0
 212 561 114 563 89 568 c 0
 71 572 53 578 46 583 c 0
 31 594 29 595 29 620 c 0
 29 642 33 681 38 683 c 0
 47 688 68 690 92 690 c 0x94
 149 690 299 689 356 689 c 0
 368 689 376 689 378 689 c 0
 444 694 489 700 560 700 c 0x8c
 571 700 581 699 593 699 c 0
 651 698 665 696 673 691 c 0
 684 683 714 628 714 611 c 0
 714 592 701 575 689 567 c 0
 683 563 675 561 663 561 c 0x94
33 358 m 0
 33 397 46 420 84 420 c 0xa4
 94 420 109 420 123 418 c 4
 180 412 261 409 336 409 c 0
 352 409 367 410 382 410 c 4
 464 411 528 429 584 429 c 4
 601 429 607 427 617 418 c 4
 629 407 659 363 663 344 c 4
 663.369140625 342.24609375 663.54296875 340.422851562 663.54296875 338.5546875 c 0
 663.54296875 320.184570312 646.799804688 297.353515625 635 291 c 4
 603 273 503 267 425 267 c 0xc4
 393 267 365 268 346 270 c 4
 324 272 239 280 189 280 c 0xa4
 172 280 160 280 154 277 c 4
 148 274 142 269 141 266 c 4
 136 253 128 211 128 180 c 0
 128 165 130 151 135 146 c 0
 150 131 205 127 274 127 c 0
 397 127 563 142 614 142 c 0
 668 142 680 130 697 94 c 0
 702.875976562 80.7802734375 710.369140625 67.0205078125 710.369140625 53.1171875 c 0
 710.369140625 48.0908203125 709.389648438 43.044921875 707 38 c 0
 699 21 672 6 648 3 c 0
 579 -7 493 -10 408 -10 c 0
 317 -10 226 -6 155 0 c 0
 127 2 93 6 79 8 c 0
 49 12 38 24 26 43 c 0
 21 51 16 91 16 117 c 0
 16 155 31 195 36 231 c 4
 38 249 39 261 39 274 c 0
 39 292 33 341 33 358 c 0
EndSplineSet
Validated: 1
EndChar

StartChar: F
Encoding: 70 70 6
Width: 779
Flags: W
HStem: -7 21G<86.5 113.5> 272 138<179.106 493.76> 280 150<501.283 702.503> 283 137<269.127 604.686> 570 130<28.3494 521.95>
VStem: 35 120<14.4057 118.969> 47 128<122.153 268.903>
LayerCount: 2
Fore
SplineSet
478 700 m 0x88
 512 700 564 701 598 701 c 0
 657 701 686 699 694 697 c 4
 702 695 715 687 723 680 c 4
 734 670 763 618 763 594 c 0
 763 587 752 581 714 563 c 5
 595 561 l 6
 567 561 544 560 526 560 c 0
 438 560 454 570 367 570 c 0
 320 570 89 565 76 565 c 0
 54 565 35 580 26 595 c 4
 19 607 16 631 16 661 c 0
 16 681 19 687 31 704 c 5
 135 705 l 6
 145 705 156 705 165 705 c 0
 300 705 341 700 478 700 c 0x88
32 120 m 0
 32 166 47 208 47 249 c 0
 47 264 45 280 38 294 c 0
 28 315 22 337 18 360 c 0
 18 361 18 362 18 364 c 0
 18 383 36 410 47 419 c 0
 55.892578125 426.845703125 64.2373046875 429.767578125 73.751953125 429.767578125 c 0
 82.427734375 429.767578125 92.076171875 427.338867188 104 424 c 0
 138 415 204 410 265 410 c 0xca
 354 410 381 418 481 420 c 0x9a
 541 421 581 430 620 430 c 0
 639 430 659 428 680 422 c 0
 698 417 737 378 742 359 c 0
 744.32421875 350.864257812 745.748046875 344.6796875 745.748046875 339.340820312 c 0
 745.748046875 330.900390625 742.188476562 324.576171875 733 316 c 0
 724 308 710 301 682 292 c 0
 651 282 629 280 606 280 c 0xaa
 578 280 548 283 499 283 c 0x9a
 386 283 351 272 264 272 c 0
 253 272 240 272 229 272 c 0
 200 272 181 271 179 269 c 0
 177 267 175 260 175 254 c 0xca
 175 235 176 212 176 187 c 0
 176 152 174 116 167 93 c 0
 162 76 156 55 155 46 c 0
 151 17 129 -7 98 -7 c 0
 75 -7 63 5 51 21 c 0
 37 40 42 47 35 69 c 0xcc
 33 76 32 98 32 120 c 0
EndSplineSet
Validated: 1
EndChar

StartChar: G
Encoding: 71 71 7
Width: 924
Flags: W
HStem: -43 135<300.371 549.316> 296 144<449.077 812.672> 679 20G<152.5 167.5> 679 20G<152.5 167.5>
VStem: 16 118<246.34 437.922>
LayerCount: 2
Fore
SplineSet
105 667 m 0xe8
 118 681 141 699 164 699 c 0
 171 699 183 696 191 693 c 0
 200 690 216 676 233 657 c 0
 255 633 261 624 261 615 c 0
 261 593 233 564 218 552 c 0
 207 543 197 530 190 516 c 0
 165 463 134 399 134 332 c 0
 134 299 141 266 160 232 c 0
 169 215 184 193 193 183 c 0
 236 132 327 92 427 92 c 0
 454 92 481 95 509 101 c 0
 632 130 659 176 732 255 c 4
 742.2109375 265.848632812 748.755859375 271.403320312 757.094726562 271.403320312 c 0
 761.822265625 271.403320312 767.125 269.618164062 774 266 c 4
 780 263 790 255 795 249 c 4
 800 244 820 230 820 215 c 0
 820 213 820 211 819 209 c 4
 722 14 637 -43 441 -43 c 0
 373 -43 362 -42 335 -35 c 0
 276 -19 267 -14 211 24 c 0
 182 44 143 76 122 95 c 0
 93 122 82 135 75 151 c 0
 36 238 16 290 16 406 c 0
 16 414 16 423 16 432 c 0
 16 447 18 438 21 454 c 0
 24 470 35 504 45 530 c 0
 67 589 69 626 105 667 c 0xe8
530 296 m 0
 521 296 511 295 503 295 c 0
 468 295 451 305 443 332 c 0
 439 346 430 388 430 409 c 0
 430 425 437 431 451 434 c 0
 458 436 507 440 540 440 c 0
 566 440 590 437 610 437 c 0
 642 437 690 442 732 444 c 4
 767 446 797 449 798 450 c 4
 799 451 806 452 813 452 c 4
 852 452 873 423 891 398 c 4
 898 388 905 377 907 372 c 4
 909 367 909 358 907 349 c 4
 901 323 860 313 825 309 c 4
 765 302 670 298 602 294 c 4
 597 294 591 293 586 293 c 0
 563 293 544 296 530 296 c 0
EndSplineSet
Validated: 1
EndChar

StartChar: H
Encoding: 72 72 8
Width: 653
Flags: W
HStem: 1 21G<591.5 609.5> 323 109<139.193 372.436> 334 116<228.543 507.7> 708.606 20G<41.9609 51.8931> 708.606 20G<41.9609 51.8931>
VStem: 18 112<436.325 696.748> 18 104<88.6566 316.853 436.325 699.759> 522 115<25.471 179.501>
LayerCount: 2
Fore
SplineSet
156 46 m 0xc3
 156 27 139 10 121 10 c 0
 100 10 79 26 64 39 c 0
 55 47 42 62 35 72 c 0
 23 90 22 93 18 155 c 0xc3
 16 180 16 206 16 242 c 0
 16 329 20 458 20 555 c 0
 20 612 19 657 18 666 c 0
 17 675 16 681 16 686 c 0
 16 704.35546875 32.845703125 728.606445312 51.076171875 728.606445312 c 0
 52.7099609375 728.606445312 54.35546875 728.411132812 56 728 c 0
 71 724 98 711 106 700 c 0
 110 695 117 681 121 670 c 0
 128 653 130 524 130 488 c 0
 130 445 130 443 139 436 c 0
 143 433 155 432 171 432 c 0xd5
 221 432 312 443 332 446 c 0
 347 449 361 450 373 450 c 0
 409 450 435 441 477 436 c 0
 518 431 549 436 576 419 c 0
 592 409 597 403 610 378 c 0
 622 353 624 348 624 324 c 0
 624 278 620 231 620 181 c 0
 620 149 621 118 628 91 c 0
 632 75 637 56 637 40 c 0
 637 22 618 1 601 1 c 0
 582 1 556 14 545 24 c 0
 537 31 527 45 522 55 c 0
 514 71 523 266 510 307 c 0
 502 331 472 334 441 334 c 0xa5
 389 334 339 321 281 321 c 0
 250 321 214 323 185 323 c 0
 159 323 139 321 132 317 c 0
 127 314 125 303 123 255 c 0
 122 239 122 225 122 213 c 0
 122 163 130 124 145 85 c 0
 153 63 156 54 156 46 c 0xc3
EndSplineSet
Validated: 1
EndChar

StartChar: J
Encoding: 74 74 9
Width: 658
Flags: W
HStem: -14 125<148.76 429.781> 643.11 20G<557.116 568.582> 643.11 20G<557.116 568.582>
VStem: 522 120<257.074 614.852>
LayerCount: 2
Fore
SplineSet
16 165 m 0xd0
 16 193.190429688 16.9453125 210.041992188 38.125 210.041992188 c 0
 38.7333984375 210.041992188 39.3583984375 210.028320312 40 210 c 0
 46 210 56 208 60 205 c 0
 79 194 105 169 125 152 c 0
 151 130 153 126 190 120 c 0
 219 115 258 111 297 111 c 0
 349 111 400 117 430 132 c 0
 437 135 450 145 460 154 c 0
 473 166 482 180 496 210 c 0
 516 252 522 331 522 414 c 0
 522 485 518 559 514 616 c 1
 526 634 l 2
 536.4453125 649.668945312 548.561523438 663.110351562 565.670898438 663.110351562 c 0
 571.4921875 663.110351562 577.891601562 661.5546875 585 658 c 0
 591 655 603 644 611 634 c 0
 631 609 642 527 642 453 c 0
 642 420 639 389 635 365 c 0
 624 305 613 199 613 156 c 0
 613 148 606 131 595 113 c 0
 585 96 567 72 556 59 c 0
 498 -8 453 -12 319 -13 c 4
 307 -13 296 -14 286 -14 c 0
 227 -14 216 -12 192 -6 c 0
 161 2 108 17 84 29 c 0
 70 36 37 71 29 83 c 0
 20 97 16 139 16 165 c 0xd0
EndSplineSet
Validated: 1
EndChar

StartChar: K
Encoding: 75 75 10
Width: 609
Flags: W
HStem: 266 134<38.2561 100.909> 642.814 20G<504.242 516.404> 642.814 20G<504.242 516.404>
LayerCount: 2
Fore
SplineSet
486 655 m 0xc0
 493.372070312 660.602539062 500.65625 662.814453125 507.828125 662.814453125 c 0
 524.979492188 662.814453125 541.487304688 650.166992188 557 641 c 0
 579 627 583 622 588 599 c 0
 589 593 588 584 585 578 c 0
 540 490 377 404 286 356 c 0
 265 345 246 333 244 330 c 0
 242.676757812 328.015625 242.092773438 326.16796875 242.092773438 324.438476562 c 0
 242.092773438 315.711914062 256.984375 310.0078125 267 305 c 0
 277 300 299 288 316 278 c 0
 391 234 497 170 559 107 c 0
 573 92 587 77 589 72 c 0
 592.462890625 65.0751953125 593.938476562 58.2919921875 593.938476562 51.8583984375 c 0
 593.938476562 34.1376953125 582.73828125 19.0703125 571 11 c 0
 562 5 558 3 547 3 c 0
 508 3 489 12 471 34 c 0
 449 61 432 68 397 90 c 0
 349 120 329 139 278 172 c 0
 217 212 122 232 52 266 c 0
 40 272 34 278 26 294 c 0
 19 309 16 320 16 334 c 0
 16 353 16 355 37 377 c 0
 58 399 59 400 78 400 c 0
 95 400 202 449 214 455 c 0
 224 461 238 467 244 470 c 0
 339 509 411 600 486 655 c 0xc0
EndSplineSet
Validated: 1
EndChar

StartChar: L
Encoding: 76 76 11
Width: 770
Flags: W
HStem: -1 140<143.156 693> 662 20G<47.5 55> 662 20G<47.5 55>
VStem: 19 115<144.151 416.512> 30 104<222.344 293.815 296.213 578.778> 37 101<316.685 637.398>
LayerCount: 2
Fore
SplineSet
28 652 m 0xc4
 28 664 42 682 53 682 c 0
 57 682 66 679 74 675 c 0
 82 671 100 656 138 616 c 1xc4
 134 478 l 2xc8
 132 402 131 320 131 295 c 0
 131 270 132 227 134 199 c 0
 136 164 139 147 143 144 c 0
 146 141 170 140 209 139 c 0
 242 139 365 138 693 136 c 1
 722 107 l 2
 743 86 752 74 754 65 c 0
 754.44921875 62.755859375 754.651367188 60.19921875 754.651367188 57.44921875 c 0
 754.651367188 41.81640625 748.102539062 19.953125 743 14 c 0
 741 11 735 7 730 5 c 0
 726 4 542 -1 490 -1 c 0
 442 -1 410 0 396 2 c 0
 385 3 371 4 355 4 c 0
 305 4 235 -1 177 -1 c 0
 102 -1 78 4 48 44 c 0
 38 58 27 79 22 91 c 0
 18 103 16 109 16 116 c 0
 16 121 17 127 19 136 c 0xd0
 25 162 27 454 30 489 c 0xc8
 33 523 37 554 37 580 c 0
 37 604 28 631 28 652 c 0xc4
EndSplineSet
Validated: 1
EndChar

StartChar: M
Encoding: 77 77 12
Width: 745
Flags: W
VStem: 575 125<41.5496 298.391> 605 108<253.849 495.81>
LayerCount: 2
Fore
SplineSet
620 736 m 4x40
 631 742 642 746 643 746 c 4
 658 746 688 732 698 723 c 4
 708 714 714 703 721 680 c 4
 727 663 729 653 729 643 c 0
 729 628 724 612 720 599 c 4
 717 589 714 558 713 526 c 4x40
 708 399 707 252 700 121 c 4
 697 64 695 47 689 35 c 4
 681.53125 19.3154296875 666.251953125 2.5146484375 647.330078125 2.5146484375 c 0
 640.91796875 2.5146484375 634.086914062 4.4443359375 627 9 c 4
 611 20 589 48 581 69 c 4
 577 79 575 84 575 92 c 0x80
 575 98 576 106 578 118 c 4
 595 232 599 327 604 437 c 4
 605 450 605 460 605 469 c 0
 605 484 604 492 602 496 c 4
 600 501 594 505 590 505 c 4
 586 505 573 496 561 485 c 4
 531 458 458 392 444 352 c 4
 442 346 437 333 435 325 c 4
 430 305 409 277 382 277 c 0
 379 277 375 277 372 278 c 4
 334 288 308 281 282 302 c 4
 273 309 259 330 246 352 c 4
 234 373 216 401 206 415 c 4
 193 433 48 588 42 604 c 4
 39 613 32 630 26 642 c 4
 20 654 16 666 16 669 c 4
 16 672 19 677 24 680 c 4
 30 684 37 685 48 683 c 4
 115 671 189 576 231 528 c 4
 244 513 265 488 276 472 c 4
 287 456 302 440 307 436 c 4
 316 429 317 429 327 434 c 4
 333 437 354 456 373 476 c 4
 446 553 521 628 586 709 c 4
 594 719 608 730 620 736 c 4x40
EndSplineSet
Validated: 1
EndChar

StartChar: N
Encoding: 78 78 13
Width: 742
Flags: W
HStem: 629 114<273.911 494.53>
VStem: 16.3135 128<20.2265 471.493> 583.313 143<75.3674 324.627>
LayerCount: 2
Fore
SplineSet
20.3134765625 94 m 0
 20.3134765625 113 16.3134765625 157 16.3134765625 169 c 0
 16.3134765625 177 17.3134765625 233 18.3134765625 299 c 0
 22.3134765625 543 74.3134765625 682 264.313476562 731 c 0
 297.313476562 739 330.313476562 743 364.313476562 743 c 0
 410.313476562 743 455.313476562 735 498.313476562 720 c 4
 553.313476562 701 577.313476562 692 611.313476562 656 c 0
 628.313476562 638 640.313476562 620 654.313476562 592 c 0
 696.313476562 508 695.313476562 397 708.313476562 291 c 0
 716.313476562 230 718.313476562 145 725.313476562 87 c 0
 725.313476562 84 726.313476562 80 726.313476562 76 c 0
 726.313476562 47 709.313476562 21 682.313476562 21 c 0
 658.313476562 21 627.313476562 42 616.313476562 57 c 0
 610.313476562 65 603.313476562 79 599.313476562 86 c 0
 587.313476562 110 583.313476562 271 583.313476562 320 c 0
 583.313476562 419 570.313476562 500 542.313476562 576 c 0
 531.313476562 605 526.313476562 607 496.313476562 620 c 0
 480.313476562 627 454.313476562 629 425.313476562 629 c 0
 364.313476562 629 289.313476562 617 264.313476562 603 c 0
 148.573242188 537.258789062 144.286132812 402.07421875 144.286132812 215.702148438 c 0
 144.286132812 200.79296875 144.313476562 185.555664062 144.313476562 170 c 0
 144.313476562 111 145.313476562 64 146.313476562 57 c 0
 147.681640625 50.70703125 148.375976562 45.611328125 148.375976562 41.263671875 c 0
 148.375976562 29.7197265625 143.483398438 23.443359375 133.313476562 14 c 0
 121.950195312 3.7734375 105.422851562 -2.2568359375 88.681640625 -2.2568359375 c 0
 75.95703125 -2.2568359375 63.109375 1.2265625 52.3134765625 9 c 0
 37.3134765625 19 26.3134765625 30 19.3134765625 48 c 0
 16.8525390625 53.5380859375 16 57.9404296875 16 62.0224609375 c 0
 16 71.20703125 20.3134765625 78.76953125 20.3134765625 94 c 0
EndSplineSet
Validated: 1
EndChar

StartChar: O
Encoding: 79 79 14
Width: 810
Flags: W
HStem: 30 110<249.057 484.069> 615 113<316.622 582.382>
VStem: 16 122<242.061 429.269> 670 124<362.476 537.058>
LayerCount: 2
Fore
SplineSet
396 717 m 0
 441 717 441 728 489 728 c 0
 598 728 671 648 731 593 c 0
 777 552 794 493 794 430 c 0
 794 344 760 253 716 197 c 0
 651 114 607 66 485 37 c 0
 465 32 454 30 426 30 c 0
 413 30 395 30 372 31 c 0
 217 35 147 76 79 161 c 0
 40 210 16 295 16 379 c 0
 16 455 37 541 84 582 c 0
 140 631 246 696 334 711 c 0
 352 714 379 717 396 717 c 0
483 615 m 0
 422 615 385 613 343 602 c 0
 225 572 138 440 138 325 c 0
 138 230 198 146 351 141 c 0
 372 140 393 140 409 140 c 0
 441 140 452 139 470 152 c 0
 477 157 491 166 501 172 c 0
 584 220 670 356 670 465 c 0
 670 548 621 615 483 615 c 0
EndSplineSet
Validated: 33
EndChar

StartChar: P
Encoding: 80 80 15
Width: 645
Flags: W
HStem: -6.5752 21G<151.893 166.456> 610 114<43.0067 274.157> 617 128<112.174 441.446>
VStem: 490.564 139<516.75 595.716>
LayerCount: 2
Fore
SplineSet
71.564453125 409 m 0xb0
 91.564453125 409 133.564453125 407 153.564453125 407 c 0
 179.564453125 407 195.564453125 409 214.564453125 413 c 0
 283.564453125 426 353.564453125 441 410.564453125 467 c 0
 436.564453125 479 465.564453125 506 479.564453125 532 c 0
 487.564453125 547 490.564453125 556 490.564453125 563 c 0
 490.564453125 583 469.564453125 599 452.564453125 603 c 0
 405.564453125 615 382.564453125 617 295.564453125 617 c 0xb0
 236.564453125 617 171.564453125 616 151.564453125 613 c 0
 137.564453125 611 124.564453125 610 111.564453125 610 c 0
 88.564453125 610 51.564453125 615 42.564453125 621 c 0
 31.4775390625 629.711914062 16 662.8828125 16 687.732421875 c 0
 16 694.260742188 17.068359375 700.21484375 19.564453125 705 c 0
 21.564453125 709 29.564453125 716 36.564453125 719 c 0
 44.564453125 723 62.564453125 724 83.564453125 724 c 0xd0
 123.564453125 724 150.564453125 735 184.564453125 739 c 0
 214.564453125 743 245.564453125 745 275.564453125 745 c 0
 419.564453125 745 554.564453125 703 603.564453125 618 c 0
 618.564453125 592 629.564453125 564 629.564453125 528 c 0
 629.564453125 470 595.564453125 430 559.564453125 398 c 0
 477.564453125 324 374.564453125 315 226.564453125 306 c 0
 182.564453125 303 174.564453125 302 167.564453125 296 c 0
 160.564453125 290 158.564453125 285 160.564453125 271 c 0
 170.564453125 190 190.564453125 111 199.564453125 37 c 0
 200.564453125 31 200.564453125 27 200.564453125 24 c 0
 200.564453125 4.41796875 177.86328125 -6.5751953125 155.048828125 -6.5751953125 c 0
 148.736328125 -6.5751953125 142.416015625 -5.7333984375 136.564453125 -4 c 0
 112.564453125 3 107.564453125 9 93.564453125 34 c 0
 55.564453125 103 61.564453125 216 40.564453125 301 c 4
 35.564453125 323 28.564453125 351 25.564453125 362 c 0
 22.8427734375 371.298828125 21.458984375 378.797851562 21.458984375 384.834960938 c 0
 21.458984375 405.413085938 37.544921875 409 71.564453125 409 c 0xb0
EndSplineSet
Validated: 1
EndChar

StartChar: U
Encoding: 85 85 16
Width: 712
Flags: W
HStem: -5 122<250.627 407.305> 659 1G<32 36 578.5 587.5> 659 1G<32 36 578.5 587.5>
VStem: 571 125<310.94 604.335>
LayerCount: 2
Fore
SplineSet
571 645 m 0xd0
 571 656 575 679 582 679 c 4
 593 679 635 657 643 651 c 4
 649 647 657 638 661 632 c 4
 687 590 696 526 696 458 c 0
 696 381 685 299 675 236 c 4
 671 209 669 197 657 183 c 4
 645 170 634 146 625 128 c 4
 620 119 611 107 605 102 c 4
 599 97 581 81 564 65 c 4
 512 16 444 -5 375 -5 c 0
 272 -5 167 41 109 105 c 4
 93 122 78 140 75 146 c 4
 3 269 22 416 16 595 c 4
 16 608 16 618 16 626 c 0
 16 645 17 651 21 654 c 4
 24 657 30 660 34 660 c 4
 38 660 45 658 51 655 c 4
 57 652 71 639 83 627 c 4
 101 608 105 602 107 586 c 4
 129 420 109 266 186 164 c 4
 205 139 220 127 256 121 c 4
 270 119 290 117 300 117 c 0
 324 117 371 127 390 132 c 4
 412 138 472 171 485 186 c 4
 552 265 576 386 576 524 c 0
 576 557 574 620 572 632 c 4
 571 636 571 641 571 645 c 0xd0
EndSplineSet
Validated: 1
EndChar

StartChar: S
Encoding: 83 83 17
Width: 749
Flags: W
HStem: 5 129<206.836 471.574> 669 20G<147.5 166> 669 20G<147.5 166>
VStem: 97 122<586.194 666.648> 600.944 132.056<231.131 304.786>
LayerCount: 2
Fore
SplineSet
97 629 m 0xd8
 97 659 105 663 123 677 c 0
 134 686 141 689 154 689 c 0
 178 689 201 666 211 649 c 0
 217 639 219 629 219 614 c 0
 219 603 221 590 224 586 c 0
 227 582 244 573 263 564 c 0
 327 534 454 504 511 470 c 0
 573 434 649 404 689 344 c 4
 699 329 713 305 720 289 c 0
 727 273 733 254 733 247 c 0
 733 227 718 186 714 168 c 0
 711 153 705 146 672 114 c 0
 647 90 621 70 599 57 c 0
 546 26 449 5 355 5 c 0
 294 5 233 14 188 34 c 0
 161 46 135 48 108 60 c 0
 87 69 47 110 37 130 c 0
 29 145 16 182 16 205 c 0
 16 228 32 244 56 244 c 0
 83 244 106 221 116 201 c 0
 121 190 130 180 137 176 c 0
 144 172 169 163 193 156 c 0
 238 142 288 134 337 134 c 0
 445 134 548 170 589 246 c 0
 595.767578125 258.40625 600.944335938 268.586914062 600.944335938 277.6171875 c 0
 600.944335938 284.600585938 597.848632812 290.895507812 590 297 c 0
 571 312 544 326 520 340 c 0
 508 347 493 355 488 357 c 0
 437 373 336 412 292 434 c 0
 265 447 189 488 166 507 c 0
 147 523 105 565 100 590 c 0
 99 598 97 616 97 629 c 0xd8
EndSplineSet
Validated: 1
EndChar

StartChar: T
Encoding: 84 84 18
Width: 754
Flags: W
HStem: 512 121<29.7566 295.186> 680 20G<636.5 639.5> 680 20G<636.5 639.5>
VStem: 332 122<28.7234 423.328> 344 107<155.979 510.669> 354 100<6.7154 134.022>
LayerCount: 2
Fore
SplineSet
297 520 m 0xc8
 260 520 113 512 67 512 c 0
 45 512 42 515 32 530 c 0
 24 542 16 569 16 590 c 0
 16 605 22 621 31 627 c 0
 38 631 52 633 99 633 c 0
 100 633 l 0
 184 633 213 642 294 647 c 0
 378 653 420 656 496 671 c 0
 527 677 570 686 592 691 c 0
 614 696 635 700 638 700 c 0
 641 700 652 695 663 688 c 0
 687 673 712 661 727 639 c 0
 733 630 738 619 738 612 c 0
 738 605 733 593 727 584 c 0
 720 573 710 565 695 558 c 0
 660 541 509 547 468 536 c 0
 463 535 456 530 452 527 c 1
 452 527 451 408 451 308 c 0xc8
 451 240 452 181 453 176 c 0
 455 167 455 158 455 149 c 0
 455 134 449 94 449 79 c 0
 449 67 454 56 454 46 c 0xd0
 454 30 437 3 429 -4 c 0
 423 -9 414 -13 409 -13 c 0
 395 -13 361 19 354 28 c 0xc4
 345 40 341 80 335 96 c 0
 333 102 332 114 332 135 c 0xd0
 332 249 344 328 344 428 c 0
 344 434 344 440 344 447 c 0
 344 493 343 504 337 511 c 0
 331 518 321 520 297 520 c 0xc8
EndSplineSet
Validated: 1
EndChar

StartChar: W
Encoding: 87 87 19
Width: 884
Flags: W
HStem: 629 20G<778 794>
VStem: 16 103<518.837 605.203>
LayerCount: 2
Fore
SplineSet
763 638 m 0
 771 647 773 649 783 649 c 0
 805 649 814 646 834 632 c 0
 846 624 859 612 862 607 c 0
 865 602 868 592 868 584 c 0
 868 574 866 566 859 559 c 0
 854 553 840 536 830 520 c 0
 820 504 809 477 807 470 c 0
 805 463 786 446 776 431 c 0
 743 383 717 333 689 268 c 0
 675 235 659 202 654 195 c 0
 649 188 643 155 640 144 c 4
 637 133 632 116 627 108 c 4
 621 97 612 90 569 68 c 5
 552 74 l 6
 539 79 531 85 516 105 c 4
 505 119 494 138 492 146 c 4
 490 154 480 191 470 208 c 0
 420 294 371 419 305 491 c 0
 279 519 285 534 273 564 c 0
 269.256835938 572.92578125 267.337890625 581.767578125 267.337890625 589.8359375 c 0
 267.337890625 609.788085938 279.077148438 625 304 625 c 0
 319 625 357 603 365 596 c 0
 382 581 401 546 413 522 c 0
 441 467 483 361 520 306 c 0
 530 291 542 277 548 273 c 0
 552.764648438 269.724609375 556.465820312 268.310546875 559.498046875 268.310546875 c 0
 566.6484375 268.310546875 570.084960938 276.168945312 575 286 c 0
 585 306 617 388 630 406 c 0
 637 415 660 444 672 469 c 0
 684 494 699 533 707 545 c 0
 715 557 728 579 737 592 c 0
 746 605 753 618 753 621 c 0
 753 624 757 631 763 638 c 0
16 582 m 0
 16 609 19 617 39 622 c 0
 44.25 623.25 48.8125 623.8125 52.953125 623.8125 c 0
 65.375 623.8125 74 618.75 86 612 c 0
 108 600 111 596 119 568 c 0
 123 556 136 526 149 503 c 0
 162 480 179 441 187 426 c 0
 236 338 294 237 345 150 c 4
 355 133 363 115 363 109 c 4
 363 92 341 74 329 67 c 4
 322.708007812 63.5400390625 317.109375 62.05859375 311.922851562 62.05859375 c 0
 300.623046875 62.05859375 291.28125 69.08984375 281 78 c 4
 273 85 257 107 245 128 c 4
 173 248 119 340 54 471 c 0
 17 545 16 559 16 582 c 0
EndSplineSet
Validated: 1
EndChar

StartChar: Y
Encoding: 89 89 20
Width: 697
Flags: W
HStem: 646 13.3389G<63.9116 74.1138 599 610> 646 13.3389G<63.9116 74.1138 599 610>
VStem: 261.015 115.985<63.1318 288.851> 575 106<551.281 639.371>
LayerCount: 2
Fore
SplineSet
587 659 m 0xb0
 591 663 597 666 601 666 c 0
 619 666 646 652 657 642 c 0
 676 624 681 591 681 556 c 0
 681 491 657 420 626 387 c 0
 578 336 524 303 429 297 c 0
 398 295 383 293 380 289 c 0
 378 286 377 272 377 253 c 0
 377 218 380 163 380 121 c 0
 380 77 380 56 360 37 c 4
 350 27 345 25 332 25 c 0
 317 25 314 27 297 45 c 4
 266 77 260 108 260 174 c 0
 260 199 261 224 261 246 c 0
 261 250.434570312 261.014648438 254.537109375 261.014648438 258.334960938 c 0
 261.014648438 298.209960938 259.34765625 304.521484375 221 310 c 0
 111 325 59 387 16 475 c 1
 19 515 l 2
 21 537 24 572 26 594 c 0
 29 632 28 646 50 656 c 0
 55.0458984375 658.374023438 60.8837890625 659.338867188 66.939453125 659.338867188 c 0
 81.2880859375 659.338867188 96.8583984375 653.922851562 106 649 c 0
 112 646 123 636 129 627 c 0
 138 614 140 609 140 591 c 0
 140 569 139 548 139 530 c 0
 139 464 151 427 248 423 c 0
 275 422 307 419 319 416 c 0
 328 414 337 414 347 414 c 0
 357 414 368 414 384 416 c 0
 490 427 560 526 575 623 c 0
 578 643 582 655 587 659 c 0xb0
EndSplineSet
Validated: 1
EndChar

StartChar: Q
Encoding: 81 81 21
Width: 899
Flags: W
HStem: 38 114<252.759 381.859> 589 135<294.173 531.034>
VStem: 16 103<255.535 431.34> 388 107<188.511 339.812> 401 91<-68.3787 27.6271> 405 104<-75.375 5.53753> 794 89<305.605 440.663>
LayerCount: 2
Fore
SplineSet
335 717 m 4xea
 348 721 369 724 383 724 c 0
 419 724 478 715 509 708 c 4xe6
 603 687 698 642 762 591 c 4
 846 524 883 441 883 359 c 0
 883 198 742 42 540 30 c 4
 507 28 492 28 492 6 c 4xea
 492 -3 509 -68 509 -80 c 0xe6
 509 -91 500 -115 495 -118 c 4xf2
 490.689453125 -120.514648438 484.829101562 -121.609375 478.765625 -121.609375 c 0
 467.950195312 -121.609375 456.485351562 -118.125976562 452 -113 c 4
 442 -102 410 -50 405 -34 c 4xe6
 403 -27 401 -12 401 -1 c 0
 401 15 400 20 392 28 c 4
 384 36 379 38 357 38 c 0
 271 38 186 87 132 126 c 4
 60 178 16 274 16 376 c 0
 16 415 22 455 36 494 c 4
 91 647 177 666 335 717 c 4xea
485 187 m 0
 485 166 489 159 504 159 c 4
 509 159 535 165 561 172 c 4
 644 195 794 268 794 373 c 0
 794 398 785 425 765 454 c 4
 717 521 631 557 535 580 c 4
 503 588 477 591 445 591 c 0
 426 591 400 590 378 589 c 4
 233 583 119 469 119 333 c 0
 119 302 127 260 139 245 c 4
 145 238 159 224 169 213 c 4
 205 177 276 162 341 154 c 4
 355 152 363 152 369 152 c 0
 376 152 379 153 382 156 c 4
 387 161 388 180 388 269 c 4
 388 328 390 378 392 382 c 4
 395.192382812 387.586914062 406.029296875 394.448242188 416.884765625 394.448242188 c 0
 419.629882812 394.448242188 422.375976562 394.008789062 425 393 c 4
 437 388 485 351 491 340 c 4
 493 336 495 332 495 324 c 0xf2
 495 317 494 308 492 294 c 4xea
 489 266 485 219 485 187 c 0
EndSplineSet
Validated: 1
EndChar

StartChar: R
Encoding: 82 82 22
Width: 694
Flags: W
HStem: 217 137<74.7677 229.866> 584 88<37.6394 340.709>
VStem: 400 102<434.562 535.749>
LayerCount: 2
Fore
SplineSet
49 655 m 0
 92 667 136 672 188 672 c 0
 223 672 328 664 351 658 c 0
 443 634 494 593 502 482 c 0
 502 479 502 475 502 472 c 0
 502 461 501 450 499 444 c 0
 481 375 458 347 396 311 c 0
 370 296 348 281 345 278 c 0
 342 274 341 270 343 267 c 0
 345 264 368 253 395 241 c 0
 470 208 527 203 597 166 c 0
 630 149 659 126 672 93 c 0
 676 82 678 74 678 69 c 0
 678 49 659 41 638 41 c 0
 628 41 615 44 606 48 c 0
 524 89 442 102 361 139 c 4
 336 150 300 167 281 176 c 0
 241 195 239 191 203 206 c 0
 184 214 174 216 126 217 c 0
 85 218 67 220 59 224 c 0
 41 233 38 246 30 268 c 0
 26 279 23 297 23 307 c 0
 23 333 32 354 51 363 c 0
 60.498046875 367.749023438 67.4912109375 370.270507812 74.474609375 370.270507812 c 0
 80.7265625 370.270507812 86.970703125 368.250976562 95 364 c 0
 104 359 139 354 162 354 c 0
 234 354 311 387 357 417 c 0
 380 432 400 452 400 485 c 0
 400 503 397 531 392 536 c 0
 357 571 262 577 195 584 c 0
 194 584 193 584 191 584 c 0
 167 584 70 575 36 575 c 0
 29 575 24 575 24 576 c 0
 20 585 16 612 16 628 c 0
 16 646 31 650 49 655 c 0
EndSplineSet
Validated: 1
EndChar

StartChar: V
Encoding: 86 86 23
Width: 707
Flags: W
HStem: 53 153.27<373.463 440.094> 651.783 20G<605.833 616.846> 651.783 20G<605.833 616.846>
VStem: 580.594 111<569.773 644.408>
LayerCount: 2
Fore
SplineSet
592.59375 666 m 0xd0
 596.139648438 670.190429688 602.283203125 671.783203125 609.3828125 671.783203125 c 0
 624.30859375 671.783203125 643.461914062 664.743164062 651.59375 660 c 0
 665.59375 652 691.59375 625 691.59375 606 c 0
 691.59375 600 687.59375 588 681.59375 580 c 0
 675.59375 572 668.59375 554 664.59375 542 c 0
 640.59375 460 609.59375 395 580.59375 317 c 0
 550.59375 237 536.59375 179 498.59375 110 c 0
 488.59375 91 477.59375 77 465.59375 67 c 0
 453.59375 57 444.59375 53 435.59375 53 c 0
 415.59375 53 376.59375 64 364.59375 73 c 0
 346.59375 86 329.59375 118 315.59375 138 c 0
 308.59375 148 295.59375 170 287.59375 187 c 0
 256.59375 253 209.59375 303 174.59375 365 c 0
 159.59375 391 137.59375 416 125.59375 442 c 0
 111.59375 473 77.59375 523 52.59375 548 c 0
 34.59375 566 26.59375 577 21.59375 591 c 0
 18.130859375 601.775390625 16 611.069335938 16 619.053710938 c 0
 16 631.817382812 21.4453125 641.233398438 35.59375 648 c 0
 44.59375 652 52.59375 654 64.59375 652 c 0
 79.59375 650 85.59375 645 109.59375 620 c 0
 194.59375 532 232.59375 434 301.59375 329 c 0
 321.59375 299 347.59375 261 360.59375 244 c 0
 373.59375 227 386.59375 212 389.59375 209 c 0
 391.845703125 207.094726562 394.037109375 206.26953125 396.142578125 206.26953125 c 0
 406.194335938 206.26953125 414.287109375 225.078125 417.59375 235 c 0
 420.59375 246 429.59375 265 436.59375 276 c 0
 498.59375 381 547.59375 520 580.59375 638 c 0
 583.59375 649 589.59375 662 592.59375 666 c 0xd0
EndSplineSet
Validated: 1
EndChar

StartChar: X
Encoding: 88 88 26
Width: 742
Flags: W
HStem: 298 162<315.357 370.885> 647 20G<73.9131 80.9131 618.913 629.913>
LayerCount: 2
Fore
SplineSet
49.9130859375 655 m 0
 53.9130859375 661 68.9130859375 667 78.9130859375 667 c 0
 82.9130859375 667 95.9130859375 663 106.913085938 657 c 0
 136.913085938 642 164.913085938 612 191.913085938 592 c 0
 216.913085938 573 295.913085938 493 319.913085938 474 c 0
 329.913085938 466 338.913085938 460 340.913085938 460 c 0
 342.913085938 460 352.913085938 466 362.913085938 474 c 0
 416.913085938 517 529.913085938 599 592.913085938 637 c 0
 602.913085938 643 615.913085938 649 621.913085938 649 c 0
 637.913085938 649 687.913085938 611 693.913085938 600 c 0
 697.913085938 594 699.913085938 582 699.913085938 575 c 0
 699.913085938 565 696.913085938 559 687.913085938 550 c 0
 672.913085938 536 590.913085938 484 575.913085938 470 c 0
 555.913085938 451 443.913085938 400 443.913085938 367 c 0
 443.913085938 362 451.913085938 350 466.913085938 334 c 0
 520.913085938 276 623.913085938 201 688.913085938 152 c 0
 707.913085938 137 726.913085938 115 726.913085938 87 c 0
 726.913085938 64 711.913085938 54 685.913085938 54 c 0
 670.913085938 54 658.913085938 57 645.913085938 63 c 0
 635.913085938 68 611.913085938 87 592.913085938 105 c 0
 527.913085938 167 482.913085938 190 417.913085938 255 c 0
 393.913085938 279 372.913085938 298 368.913085938 298 c 0
 307.913085938 298 168.913085938 158 121.913085938 122 c 0
 110.913085938 113 96.9130859375 104 91.9130859375 103 c 0
 72.9130859375 98 56.9130859375 115 46.9130859375 128 c 0
 32.9130859375 145 5.9130859375 187 19.9130859375 215 c 0
 48.9130859375 274 191.913085938 331 241.913085938 376 c 0
 252.913085938 386 257.913085938 394 257.913085938 401 c 0
 257.913085938 410 244.913085938 424 183.913085938 486 c 0
 132.913085938 538 101.913085938 565 86.9130859375 574 c 0
 64.9130859375 587 46.9130859375 607 46.9130859375 636 c 0
 46.9130859375 644 47.9130859375 653 49.9130859375 655 c 0
EndSplineSet
Validated: 524321
EndChar

StartChar: Z
Encoding: 90 90 27
Width: 873
Flags: W
HStem: 20 152<30.4504 116.803> 71 130<576.652 837.633> 75 112<356.294 774.729> 550 131<137 432.399> 565 133<361.633 617.93> 690.032 20G<766.478 779.731> 690.032 20G<766.478 779.731>
LayerCount: 2
Fore
SplineSet
795 71 m 0x40
 723 71 651 75 573 75 c 0x20
 408 75 234 66 111 27 c 0
 95 22 84 20 75 20 c 0
 55 20 36 30 29 44 c 0
 25 52 16 100 16 117 c 0
 16 125 17 129 21 137 c 0
 27 150 33 155 68 172 c 0
 117 196 159 204 202 231 c 0
 270 273 324 303 385 351 c 0
 449 401 510 456 574 509 c 0
 594 525 612 541 615 545 c 0
 618 549 619 555 618 559 c 0
 617 563 585 565 541 565 c 0x88
 450 565 310 558 304 558 c 0
 292 557 249 555 137 550 c 1
 129 564 l 2
 116 585 115 604 102 629 c 0
 96 641 91 655 91 660 c 0
 91 666 93 671 98 673 c 0
 102 675 154 679 214 681 c 0x10
 372 686 498 692 661 698 c 0x08
 705 700 740 703 748 706 c 0
 755.849609375 708.78515625 763.122070312 710.032226562 769.833984375 710.032226562 c 0
 789.627929688 710.032226562 804.544921875 699.189453125 815 685 c 0
 828 667 823 660 830 632 c 0
 833 621 834 613 834 608 c 0
 834 603 833 599 831 594 c 0
 828 586 802 557 769 524 c 0
 702 457 659 440 595 389 c 4
 548 351 481 315 442 273 c 0
 437 267 424 258 414 251 c 0
 404 244 384 229 372 218 c 0
 359 206 352 197 352 193 c 0
 352 188 362 187 407 187 c 0x24
 457 187 552 188 582 188 c 0
 652 188 708 201 778 201 c 0
 810 201 823 195 840 177 c 0
 855 162 856 162 857 129 c 0
 857 123 857 117 857 113 c 0
 857 98 855 94 851 89 c 0
 847 85 839 79 833 76 c 0
 826 73 817 71 795 71 c 0x40
EndSplineSet
Validated: 1
EndChar

StartChar: zero
Encoding: 48 48 28
Width: 737
Flags: W
HStem: -13 113<162.321 533.581> 321 106<305.102 414.661> 598 124<119.09 348.703> 606 127<285.451 546>
VStem: 16 83<243.966 589.31> 286.428 173.572<336.71 400.788> 631 90<210.351 576.304>
LayerCount: 2
Fore
SplineSet
425 733 m 0xde
 465 735 490 736 512 736 c 0
 649 736 708 668 718 535 c 4
 720 505 721 469 721 430 c 0
 721 337 715 230 710 167 c 0
 705 108 701 68 672 39 c 0
 665 32 654 24 648 21 c 0
 590 -3 494 -13 399 -13 c 0
 305 -13 212 -4 153 11 c 0
 81 29 65 67 46 136 c 0
 36 172 39 206 34 246 c 0
 29 285 23 434 18 473 c 0
 16 487 16 496 16 507 c 0
 16 521 17 537 20 563 c 0
 32 664 51 658 91 712 c 0
 97 720 102 720 148 722 c 0xee
 216 725 356 730 425 733 c 0xde
349 605 m 0
 343 598 315 597 284 597 c 0
 260 597 233 598 213 598 c 0xee
 180 598 120 591 119 590 c 0
 117 588 114 575 111 561 c 0
 106 532 99 499 99 464 c 0
 99 418 110 397 110 355 c 0
 110 320 117 282 119 248 c 0
 121 219 128 184 128 156 c 0
 128 145 130 136 135 132 c 0
 158 110 231 100 312 100 c 0
 434 100 575 120 598 147 c 0
 606 157 608 163 608 179 c 0
 609 268 631 359 631 451 c 0
 631 482 629 513 622 544 c 0
 619 560 614 574 611 577 c 0
 608 580 593 587 576 594 c 2
 546 606 l 1
 535 606 524 606 514 606 c 0xde
 389 606 350 606 349 605 c 0
316 427 m 0
 323 427 409 425 415 422 c 0
 421 419 434 406 443 395 c 0
 458 377 460 372 460 355 c 0
 460 331.095703125 450.59375 302.48828125 426.23046875 302.48828125 c 0
 423.075195312 302.48828125 419.668945312 302.967773438 416 304 c 0
 411 305 326 313 319 321 c 0
 303 338 301 357 293 380 c 0
 289.713867188 388.763671875 286.427734375 397.52734375 286.427734375 405.140625 c 0
 286.427734375 411.426757812 288.66796875 416.9296875 295 421 c 0
 300 424 309 427 316 427 c 0
EndSplineSet
Validated: 1
EndChar

StartChar: one
Encoding: 49 49 29
Width: 691
Flags: W
HStem: 20 126<441.5 497.131 500.977 645.961> 20 109<64.8153 301.016 407.031 620.746> 27 102<408.843 580.046> 515 116<80.4981 256.368> 529 120<107.675 309.952>
VStem: 300.204 89<142.197 502.955> 311.204 89<272.871 509.903>
LayerCount: 2
Fore
SplineSet
123.204101562 635 m 0x12
 187.204101562 635 241.204101562 649 303.204101562 649 c 0
 332.204101562 649 347.204101562 645 363.204101562 630 c 0
 370.204101562 623 382.204101562 606 400.204101562 568 c 1
 400.204101562 463 l 2x0a
 400.204101562 371 389.204101562 318 389.204101562 264 c 0
 389.204101562 232 393.204101562 200 404.204101562 159 c 4
 409.204101562 141 416.204101562 129 439.204101562 129 c 0x4c
 488.204101562 129 536.204101562 146 582.204101562 146 c 0
 614.204101562 146 638.204101562 135 655.204101562 116 c 0
 670.204101562 99 669.204101562 93 674.204101562 70 c 0
 675.05078125 65.861328125 675.455078125 62.0576171875 675.455078125 58.564453125 c 0
 675.455078125 24.923828125 637.970703125 20 597.204101562 20 c 0x84
 563.204101562 20 537.204101562 27 499.204101562 27 c 0x24
 455.204101562 27 397.204101562 18 360.204101562 18 c 0
 330.204101562 18 269.204101562 19 209.204101562 20 c 0
 92.2041015625 22 77.2041015625 24 64.2041015625 30 c 0
 43.2041015625 40 42.2041015625 43 33.2041015625 68 c 0
 29.2041015625 79 23.2041015625 94 20.2041015625 101 c 0
 17.3134765625 106.78125 16 111.837890625 16 116.178710938 c 0
 16 129.591796875 28.541015625 136.16796875 45.830078125 136.16796875 c 0
 50.0439453125 136.16796875 54.5390625 135.77734375 59.2041015625 135 c 0
 69.2041015625 133 221.204101562 129 259.204101562 129 c 0
 292.204101562 129 297.204101562 131 301.204101562 135 c 0
 304.204101562 138 306.204101562 142 306.204101562 150 c 0
 306.204101562 156 305.204101562 166 304.204101562 180 c 0
 302.204101562 200 300.204101562 239 300.204101562 269 c 0x44
 300.204101562 352 311.204101562 408 311.204101562 491 c 0
 311.204101562 501 311.204101562 508 310.204101562 510 c 0
 309.204101562 513 302.204101562 519 294.204101562 523 c 0
 284.204101562 528 272.204101562 529 258.204101562 529 c 0x4a
 219.204101562 529 169.204101562 515 133.204101562 515 c 0
 108.204101562 515 82.2041015625 525 77.2041015625 544 c 0
 75.2041015625 552 64.2041015625 595 64.2041015625 608 c 0
 64.2041015625 620 72.2041015625 628 80.2041015625 631 c 0
 85.2041015625 633 104.204101562 635 123.204101562 635 c 0x12
EndSplineSet
Validated: 1
EndChar

StartChar: two
Encoding: 50 50 30
Width: 745
Flags: W
HStem: 25 125<66.9613 365.411> 63 123<365.996 681.708> 544 130<204.345 499.419>
VStem: 503.521 128.149<349.376 491>
LayerCount: 2
Fore
SplineSet
503.520507812 474 m 0x30
 503.520507812 508 502.520507812 525 488.520507812 544 c 1
 487.520507812 544 485.520507812 544 484.520507812 544 c 0
 432.520507812 544 333.520507812 550 245.520507812 550 c 0
 182.520507812 550 124.520507812 548 92.5205078125 537 c 0
 90.4443359375 536.307617188 87.984375 535.999023438 85.26953125 535.999023438 c 0
 68.3681640625 535.999023438 41.55078125 547.96875 35.5205078125 554 c 0
 23.5205078125 567 19.5205078125 590 19.5205078125 615 c 0
 19.5205078125 629 21.5205078125 638 33.5205078125 654 c 1
 191.520507812 655 385.520507812 670 495.520507812 674 c 0
 505.520507812 674 511.520507812 672 520.520507812 662 c 0
 527.520507812 655 539.520507812 647 549.520507812 642 c 0
 559.520507812 637 569.520507812 630 572.520507812 625 c 0
 606.520507812 573 602.520507812 462 623.520507812 395 c 4
 627.823242188 381.612304688 631.669921875 367.766601562 631.669921875 355.869140625 c 0
 631.669921875 342.883789062 627.087890625 332.21875 613.520507812 327 c 0
 607.520507812 325 577.520507812 322 546.520507812 321 c 0
 426.520507812 316 311.520507812 292 192.520507812 292 c 0
 188.637695312 292 185.032226562 291.986328125 181.654296875 291.986328125 c 0
 156.323242188 291.986328125 143.814453125 292.764648438 123.520507812 306 c 0
 110.520507812 315 100.520507812 325 93.5205078125 337 c 0
 87.466796875 347.76171875 83.22265625 356.26171875 83.22265625 365.237304688 c 0
 83.22265625 369.606445312 84.228515625 374.088867188 86.5205078125 379 c 0
 88.5205078125 383 100.520507812 388 114.520507812 392 c 0
 207.520507812 417 422.520507812 389 494.520507812 443 c 0
 501.520507812 448 503.520507812 451 503.520507812 474 c 0x30
607.520507812 63 m 0x70
 605.520507812 63 603.520507812 63 601.520507812 63 c 0x70
 546.520507812 63 502.520507812 61 478.520507812 58 c 0
 413.520507812 49 276.520507812 25 176.520507812 25 c 0
 104.520507812 25 75.5205078125 33 41.5205078125 69 c 0
 26.5205078125 85 19.5205078125 95 17.5205078125 106 c 0
 16.5 111.484375 16 116.236328125 16 120.360351562 c 0
 16 148.571289062 39.38671875 147.3828125 79.5205078125 150 c 0xb0
 206.520507812 159 373.520507812 164 500.520507812 183 c 0
 510.520507812 185 547.520507812 186 581.520507812 186 c 0
 640.520507812 186 645.520507812 185 663.520507812 176 c 0
 682.520507812 166 720.520507812 137 725.520507812 116 c 0
 727.209960938 109.239257812 729.217773438 99.62109375 729.217773438 91.080078125 c 0
 729.217773438 84.462890625 728.012695312 78.4921875 724.520507812 75 c 0
 721.520507812 72 713.520507812 69 706.520507812 67 c 0
 698.520507812 65 658.520507812 63 607.520507812 63 c 0x70
EndSplineSet
Validated: 1
EndChar

StartChar: three
Encoding: 51 51 31
Width: 750
Flags: W
HStem: 64 98<85.7235 424.29> 332 110<113.306 362.249> 345 95<180.795 442.719> 583 106<59.7979 332.356> 597 108<174.396 621.513>
VStem: 628.798 106<288.094 586.581>
LayerCount: 2
Fore
SplineSet
65.7978515625 689 m 0x94
 83.7978515625 689 101.797851562 686 123.797851562 686 c 0
 210.797851562 686 300.797851562 699 374.797851562 705 c 0
 389.797851562 706 426.797851562 707 467.797851562 707 c 0
 511.797851562 707 617.797851562 704 624.797851562 702 c 0
 646.797851562 696 682.797851562 665 696.797851562 648 c 0
 723.797851562 615 734.797851562 566 734.797851562 506 c 0
 734.797851562 424 714.797851562 331 714.797851562 246 c 0
 714.797851562 224 715.797851562 201 719.797851562 180 c 0
 721.797851562 171 722.797851562 166 722.797851562 161 c 0
 722.797851562 148 700.797851562 118 693.797851562 112 c 0
 679.797851562 99 627.797851562 86 603.797851562 81 c 0
 588.797851562 78 559.797851562 74 537.797851562 73 c 0
 485.797851562 70 214.797851562 67 161.797851562 65 c 0
 147.797851562 64 137.797851562 64 129.797851562 64 c 0
 112.797851562 64 107.797851562 66 99.7978515625 72 c 0
 85.7978515625 82 58.7978515625 115 55.7978515625 135 c 0
 53.7978515625 145 55.7978515625 150 61.7978515625 156 c 0
 67.7978515625 161 70.7978515625 163 96.7978515625 163 c 0
 109.797851562 163 135.797851562 162 152.797851562 162 c 0
 184.797851562 162 222.797851562 163 244.797851562 165 c 0
 325.797851562 172 464.797851562 172 544.797851562 192 c 0
 585.797851562 202 601.797851562 231 606.797851562 282 c 0
 612.797851562 344 612.797851562 431 620.797851562 496 c 0
 624.797851562 529 628.797851562 560 628.797851562 566 c 0
 628.797851562 572 625.797851562 580 621.797851562 584 c 0
 615.797851562 590 604.797851562 591 546.797851562 594 c 0
 506.797851562 596 463.797851562 597 443.797851562 597 c 0x8c
 424.797851562 597 386.797851562 595 357.797851562 593 c 0
 326.797851562 590 246.797851562 587 59.7978515625 583 c 1
 46.7978515625 594 l 2
 35.587890625 603.715820312 16 631.861328125 16 654.646484375 c 0
 16 662.350585938 18.2392578125 669.44140625 23.7978515625 675 c 0
 31.7978515625 683 47.7978515625 689 65.7978515625 689 c 0x94
106.797851562 440 m 4xa4
 109.797851562 441 138.797851562 442 176.797851562 442 c 0xc4
 232.797851562 442 331.797851562 441 363.797851562 440 c 4
 406.797851562 439 411.797851562 438 427.797851562 429 c 4
 444.797851562 419 471.797851562 394 475.797851562 373 c 4
 476.212890625 370.716796875 476.412109375 368.638671875 476.412109375 366.744140625 c 0
 476.412109375 350.376953125 461.514648438 347.688476562 441.797851562 345 c 4xa4
 400.797851562 340 234.797851562 339 191.797851562 335 c 4
 174.797851562 333 163.797851562 332 155.797851562 332 c 0xc4
 134.797851562 332 124.797851562 342 113.797851562 353 c 4
 103.399414062 364.140625 86.93359375 385.762695312 86.93359375 407.212890625 c 0
 86.93359375 414.643554688 88.9091796875 422.053710938 93.7978515625 429 c 4
 96.7978515625 434 102.797851562 439 106.797851562 440 c 4xa4
EndSplineSet
Validated: 1
EndChar

StartChar: four
Encoding: 52 52 32
Width: 653
Flags: W
HStem: 224 122<148.475 479.451> 646 20G<523 542.5> 646 20G<523 542.5>
VStem: 35 105<353.097 576.859> 523 114<95.252 239.675> 531 106<92.2409 239.675 358.147 586.343>
LayerCount: 2
Fore
SplineSet
496 629 m 0xd4
 496 648 514 666 532 666 c 0
 553 666 574 649 589 636 c 0
 598 628 611 613 618 603 c 0
 630 585 630 582 634 520 c 0
 636 495 637 469 637 433 c 0xd4
 637 380 632 232 632 180 c 0
 632 152 634 135 635 126 c 0
 636 117 637 111 637 106 c 0xd8
 637 87.64453125 619.3125 63.3935546875 600.943359375 63.3935546875 c 0
 599.296875 63.3935546875 597.64453125 63.5888671875 596 64 c 0
 581 68 555 81 547 92 c 0
 543 97 535 111 531 122 c 0xd4
 524 139 523 152 523 188 c 0xd8
 523 231 522 233 513 240 c 0
 508 244 502 246 499 245 c 0
 496 244 463 241 424 239 c 0
 385 237 339 233 321 230 c 0
 303 227 280 224 271 224 c 0
 262 224 244 227 232 230 c 0
 205 237 150 243 118 244 c 0
 100 244 92 247 77 256 c 0
 61 266 56 273 43 298 c 0
 31 323 28 327 28 351 c 0
 28 374 30 416 33 427 c 4
 34 433 35 439 35 447 c 0
 35 491 22 529 17 566 c 0
 16 571 16 574 16 577 c 0
 16 595 34 616 51 616 c 0
 70 616 97 603 108 593 c 0
 116 586 126 572 131 562 c 0
 138 547 140 544 140 503 c 0
 140 489 140 462 140 444 c 0
 140 405 141 374 143 368 c 0
 145 361 149 355 153 353 c 0
 159 350 212 346 234 346 c 0
 299 346 411 363 462 370 c 0
 464 370 467 371 469 371 c 0
 477 371 485 368 496 363 c 0
 510 356 515 355 520 358 c 0
 525 361 527 373 529 421 c 0
 530 437 531 450 531 462 c 0
 531 512 523 551 508 590 c 0
 500 612 496 621 496 629 c 0xd4
EndSplineSet
Validated: 1
EndChar

StartChar: five
Encoding: 53 53 33
Width: 755
Flags: W
HStem: 45 121<90.4843 520.141> 349 127<184.406 509.216> 364 142<402.023 595.223> 567 137<42.8212 261.494> 594 138<290.982 707.609>
VStem: 596 100<207.191 363.455>
LayerCount: 2
Fore
SplineSet
637 594 m 0x8c
 605 594 569 595 524 595 c 0
 371 595 253 594 128 573 c 0
 109 570 88 567 80 567 c 0
 57 567 46 582 36 600 c 0
 27 616 16 647 16 669 c 0
 16 684 22 700 30 704 c 0x94
 35 707 65 709 111 710 c 0
 276 712 422 732 594 732 c 0
 620 732 657 730 671 729 c 0
 694 726 695 726 712 705 c 0
 730 683 739 672 739 641 c 0
 739 619 732 603 716 598 c 0
 710 596 676 594 637 594 c 0x8c
596 337 m 0
 596 352 584 364 569 364 c 0xa4
 547 364 510 359 492 356 c 0
 480 354 423 351 366 349 c 0
 248 345 241 343 163 322 c 0
 140 316 126 313 117 313 c 0
 105 313 93 321 82 333 c 0
 68 347 45 380 45 404 c 0
 45 418 50 428 58 436 c 0
 67 444 77 446 135 455 c 0
 207 466 250 473 318 476 c 0xc4
 366 478 383 485 430 485 c 0
 453 485 473 488 502 496 c 0
 529 503 541 506 560 506 c 0xa4
 581 506 617 502 625 498 c 0
 644 488 676 450 686 429 c 0
 694 411 696 407 696 370 c 0
 696 312 691 245 691 194 c 0
 691 163 698 151 701 126 c 0
 701.395507812 122.361328125 701.590820312 119.010742188 701.590820312 115.922851562 c 0
 701.590820312 79.9814453125 675.124023438 79.7626953125 630 77 c 0
 606 75 580 72 573 70 c 0
 505 50 455 45 390 45 c 0
 349 45 301 47 239 48 c 0
 131 49 100 51 90 55 c 0
 67 65 65 74 52 101 c 0
 45.2255859375 115.165039062 38.4501953125 129.330078125 38.4501953125 141.393554688 c 0
 38.4501953125 148.916992188 41.0859375 155.622070312 48 161 c 0
 55 166 60 168 111 168 c 0
 153 168 285 166 300 166 c 0
 388 166 511 174 572 206 c 0
 588 214 588 232 590 260 c 0
 592 284 596 314 596 337 c 0
EndSplineSet
Validated: 1
EndChar

StartChar: six
Encoding: 54 54 34
Width: 762
Flags: W
HStem: 43 104<157.896 525.645> 333 114<125 570> 336 118<125 570> 554 125<493.96 715.11> 560 133.453<54.4746 414.988>
VStem: 16 104<165.187 334.216> 587 99<214.53 332.828>
LayerCount: 2
Fore
SplineSet
48 690 m 4x8e
 51.7822265625 692.521484375 58.4462890625 693.453125 66.2685546875 693.453125 c 0x8e
 83.2626953125 693.453125 105.727539062 689.0546875 116 687 c 4
 147 682 661 684 679 679 c 4
 702 673 721 655 733 635 c 4
 740.673828125 621.744140625 746.888671875 609.462890625 746.888671875 595.77734375 c 0
 746.888671875 589.845703125 745.720703125 583.651367188 743 577 c 4
 737 562 722 554 701 554 c 0x96
 693 554 675 556 660 559 c 4
 627 566 533 571 492 571 c 0
 456 571 189 568 158 564 c 4
 140 562 115 560 102 560 c 0
 70 560 56 576 44 598 c 4
 36 612 27 633 27 651 c 0
 27 662 42 686 48 690 c 4x8e
156 55 m 0
 135 55 106 46 86 46 c 0
 58 46 38 68 32 91 c 4
 30 100 25 111 22 116 c 4
 19 121 16 155 16 217 c 0
 16 262 17 319 20 348 c 4
 24 392 27 407 34 421 c 4
 43.22265625 438.5234375 53.2958984375 454.345703125 75.9873046875 454.345703125 c 0
 77.8994140625 454.345703125 79.9013671875 454.233398438 82 454 c 4xa6
 93 453 565 448 576 447 c 4xc6
 592 445 601 441 618 428 c 4
 644 408 659 394 674 365 c 4
 683 347 684 340 686 294 c 4
 686 288 686 282 686 276 c 0
 686 207 671 173 671 107 c 0
 671 92 671 84 663 76 c 4
 658 71 648 65 640 62 c 4
 630 58 608 55 559 54 c 4
 522 53 468 51 439 48 c 4
 411 45 381 43 369 43 c 0
 327 43 195 55 156 55 c 0
125 335 m 4
 124 334 120 218 120 196 c 0
 120 172 122 169 126 165 c 4
 130 162 140 158 148 157 c 4
 194 151 217 147 288 147 c 0
 307 147 328 148 352 148 c 4
 536 151 561 152 587 297 c 4
 589 308 588 313 580 322 c 6
 570 333 l 5xc6
 445 335 342 336 235 336 c 0
 172 336 126 336 125 335 c 4
EndSplineSet
Validated: 1
EndChar

StartChar: seven
Encoding: 55 55 35
Width: 652
Flags: W
HStem: 587 105<49.6701 309.29> 616 114<272.399 526.926>
VStem: 534.865 83<422.628 605.751> 539.865 85<195.095 553.126> 552.865 84<85.3499 392.468>
LayerCount: 2
Fore
SplineSet
618.865234375 612 m 0x60
 618.865234375 592 617.865234375 574 617.865234375 554 c 0x60
 617.865234375 539 618.865234375 524 619.865234375 516 c 0
 621.865234375 503 623.865234375 425 624.865234375 344 c 0x50
 625.865234375 263 627.865234375 196 628.865234375 195 c 0
 629.865234375 193 636.865234375 155 636.865234375 145 c 0
 636.865234375 129 623.865234375 92 616.865234375 85 c 0
 610.96484375 79.8369140625 598.534179688 73.041015625 587.201171875 73.041015625 c 0
 583.168945312 73.041015625 579.276367188 73.9013671875 575.865234375 76 c 0
 559.865234375 86 553.865234375 127 552.865234375 156 c 0x48
 550.865234375 235 543.865234375 323 539.865234375 420 c 4x50
 537.865234375 476 535.865234375 536 534.865234375 554 c 4
 533.865234375 578 531.865234375 588 526.865234375 595 c 0
 511.865234375 614 473.865234375 616 439.865234375 616 c 0x60
 345.865234375 616 213.865234375 587 124.865234375 587 c 0
 93.865234375 587 65.865234375 589 48.865234375 602 c 0
 36.865234375 611 19.865234375 647 16.865234375 664 c 0
 14.865234375 676 15.865234375 677 24.865234375 684 c 0
 33.865234375 690 41.865234375 692 73.865234375 692 c 0xa0
 221.865234375 693 369.865234375 730 514.865234375 730 c 0
 567.865234375 730 577.865234375 719 599.865234375 686 c 0
 617.865234375 659 618.865234375 649 618.865234375 612 c 0x60
EndSplineSet
Validated: 524289
EndChar

StartChar: eight
Encoding: 56 56 36
Width: 737
Flags: W
HStem: 41 106<157.291 527.851> 332 93<295.091 562.057> 619 98<170.961 540.093>
VStem: 38 83<191.036 319.424 439.798 589.498> 589 97<425.606 574.378> 596 84<202.396 312.388>
LayerCount: 2
Fore
SplineSet
686 571 m 0xf8
 686 532 684 516 684 424 c 1
 702 393 l 2
 713 375 721 358 721 350 c 0
 722 339 720 337 710 334 c 0
 704 332 695 328 680 321 c 1xf4
 680 266 680 168 675 130 c 0
 671 101 668 83 655 72 c 0
 652 70 636 63 618 57 c 0
 568 41 502 41 433 41 c 0
 332 41 217 48 143 65 c 0
 105 74 85 79 64 92 c 0
 60 95 51 108 31 148 c 1
 31 151 31 155 31 158 c 0
 31 230 38 329 38 418 c 0
 38 478 35 533 23 571 c 4
 21 578 16 614 16 629 c 0
 16 645 22 648 37 652 c 0
 56 657 66 671 81 678 c 0
 86 681 110 687 134 692 c 0
 204 706 296 717 383 717 c 0
 461 717 529 705 588 687 c 0
 613 679 621 675 641 656 c 0
 657 641 668 627 676 610 c 0
 684 593 686 586 686 571 c 0xf8
170 597 m 0
 150 592 128 589 124 573 c 0
 122 565 121 551 121 535 c 0
 121 509 123 477 123 462 c 0
 123 455 123 449 127 443 c 0
 134 433 529 425 549 425 c 0
 575 425 576 426 582 436 c 0
 587 443 589 454 589 468 c 0xf8
 589 507 574 562 566 577 c 0
 556 596 531 602 502 608 c 0
 464 616 419 619 373 619 c 0
 300 619 225 611 170 597 c 0
166 324 m 0
 133 319 125 317 125 283 c 0
 125 240 148 171 152 169 c 0
 184 153 234 147 288 147 c 0
 380 147 484 164 529 169 c 0
 562 173 596 221 596 265 c 0xf4
 596 283 590 300 577 313 c 4
 571 319 561 321 517 324 c 0
 464 327 380 332 303 332 c 0
 251 332 202 330 166 324 c 0
EndSplineSet
Validated: 1
EndChar

StartChar: nine
Encoding: 57 57 37
Width: 681
Flags: W
HStem: 24 115<64.6557 379.492> 42 107<194.896 590.301> 255 110<198.065 536.65> 267 98<228.517 511.697> 272 102<141.253 348.344> 610 92<131.359 393.763 398.094 555.905> 617 95<187.111 545.581>
VStem: 25 103.755<379.27 593> 567 93<394.188 594.384>
LayerCount: 2
Fore
SplineSet
184 702 m 0x0d80
 250 702 340 712 397 712 c 0
 420 712 465 710 501 708 c 0
 540 706 577 703 583 701 c 0
 601 695 644 654 653 637 c 0
 659 626 662 621 662 608 c 0
 662 595 660 584 660 567 c 0
 660 527 665 453 665 413 c 0
 665 393 664 377 662 363 c 0
 652 275 594 255 514 255 c 0x2380
 465 255 408 263 350 267 c 0x1180
 315 269 259 271 227 272 c 0
 173 273 165 274 127 285 c 0
 41 311 25 348 25 399 c 0
 25 428 30 461 30 499 c 0
 30 524 28 552 21 581 c 0
 18 595 16 609 16 612 c 0
 16 615 24 626 33 635 c 0
 47 649 50 654 50 667 c 0
 50 680 52 684 76 705 c 1
 147 703 l 2
 159 703 171 702 184 702 c 0x0d80
394 617 m 0
 389 617 381 617 378 616 c 0
 375 615 336 612 291 610 c 0
 246 608 202 604 193 602 c 0
 184 600 166 597 154 596 c 2
 131 593 l 1
 130 495 129 458 129 432 c 0
 129 423.142578125 128.754882812 415.673828125 128.754882812 409.334960938 c 0
 128.754882812 393.490234375 130.286132812 384.713867188 141 379 c 0
 146 376 176 375 223 374 c 0x0d80
 307 373 355 365 430 365 c 0
 539 365 567 389 567 473 c 0
 567 497 563 583 556 595 c 0
 554 598 550 602 546 604 c 0
 539 607 407 617 394 617 c 0
102 139 m 0x8180
 199 146 321 149 464 149 c 0
 535 149 552 148 562 144 c 0
 584 135 604 120 619 101 c 0
 628 89 632 79 632 70 c 0
 632 61 629 55 624 50 c 0
 616 43 611 42 436 42 c 0x4180
 284 42 248 41 206 35 c 0
 166 29 147 24 119 24 c 0
 77 24 59 46 46 76 c 0
 42 86 39 94 39 102 c 0
 39 113 44 124 50 129 c 0
 57 135 66 137 102 139 c 0x8180
EndSplineSet
Validated: 1
EndChar

StartChar: colon
Encoding: 58 58 38
Width: 563
Flags: W
HStem: 133 148<27.765 332.792> 163 121<183.321 359.996>
VStem: 360 187<206.323 310.5>
LayerCount: 2
Fore
SplineSet
85 281 m 0xa0
 115 281 149 280 193 280 c 0
 247 280 306 281 348 284 c 0
 354 284 360 288 360 295 c 0
 360 326 252 404 233 420 c 4
 221 430 204 444 195 451 c 0
 179 464 165 481 165 507 c 0
 165 516 167 533 170 546 c 0
 175 567 176 568 188 573 c 0
 195 576 204 577 208 576 c 0
 212 575 227 563 240 551 c 0
 297 499 371 433 425 381 c 0
 452 355 517 299 535 268 c 0
 543 254 547 241 547 226 c 0
 547 186.645507812 534.435546875 162.368164062 497.040039062 162.368164062 c 0
 493.576171875 162.368164062 489.899414062 162.576171875 486 163 c 0
 483 163 477 163 470 163 c 0x60
 431 163 355 159 327 154 c 0
 249 141 158 143 78 134 c 0
 75 134 72 133 68 133 c 0
 42 133 35 137 25 158 c 0
 18 172 16 183 16 196 c 0
 16 232 22 266 46 277 c 0
 51 279 68 281 85 281 c 0xa0
EndSplineSet
Validated: 1
EndChar

StartChar: semicolon
Encoding: 59 59 39
Width: 200
Flags: W
VStem: 16 129<62.416 316.671> 66 118<443.655 743.305>
LayerCount: 2
Fore
SplineSet
66 754 m 0x40
 66 775.861328125 86.7265625 793.456054688 109.141601562 793.456054688 c 0
 115.435546875 793.456054688 121.861328125 792.069335938 128 789 c 0
 141 782 172 728 178 713 c 0
 182 703 184 697 184 682 c 0x40
 184 615 171 546 166 483 c 4
 161 417 159 437 152 349 c 4
 149 305 146 233 145 187 c 0
 144 141 142 97 140 90 c 0
 138 83 136 70 136 62 c 0
 136 49 133 44 117 29 c 0
 104 16 96 11 88 11 c 0
 67 11 44 48 36 66 c 0
 25 91 19 140 16 172 c 0
 16 175 16 178 16 181 c 0x80
 16 191 18 200 21 211 c 0
 34 251 55 485 64 534 c 0
 69 559 72 647 72 682 c 0
 72 700 71 721 68 736 c 0
 67 743 66 749 66 754 c 0x40
EndSplineSet
Validated: 1
EndChar

StartChar: question
Encoding: 63 63 40
Width: 484
Flags: W
HStem: 721 110<181.204 335.444>
VStem: 378 90<543.387 672.869>
LayerCount: 2
Fore
SplineSet
67 619 m 0
 59 619 16 660 16 668 c 0
 16 671 24 687 34 705 c 0
 45 725 62 746 77 760 c 0
 116 798 174 831 242 831 c 0
 331 831 372 789 411 737 c 0
 442 695 468 632 468 570 c 0
 468 438 367 332 280 266 c 0
 260 251 241 233 236 227 c 0
 225 212 218 187 213 166 c 0
 209.10546875 151.202148438 194.291992188 130.336914062 177.537109375 130.336914062 c 0
 172.779296875 130.336914062 167.865234375 132.01953125 163 136 c 0
 150 147 121 187 115 207 c 0
 112 218 109 234 109 241 c 0
 109 265 138 312 151 326 c 0
 171 347 214 384 239 401 c 0
 293 437 378 539 378 622 c 0
 378 646 357 685 343 696 c 0
 326 709 290 721 261 721 c 0
 195 721 139 676 103 644 c 0
 87 630 71 619 67 619 c 0
EndSplineSet
Validated: 1
EndChar

StartChar: period
Encoding: 46 46 41
Width: 310
Flags: W
HStem: -32 332
VStem: 16 116.379<27.2133 157.272> 162.379 132.365<-5.70508 265>
LayerCount: 2
Fore
SplineSet
168.37890625 293 m 4
 172.37890625 297 178.37890625 300 182.37890625 300 c 4
 186.37890625 300 198.37890625 296 209.37890625 290 c 4
 229.37890625 280 266.37890625 253 272.37890625 232 c 4
 280.37890625 204 281.37890625 73 286.37890625 43 c 4
 289.829101562 19.9990234375 294.744140625 3.30078125 294.744140625 -5.705078125 c 4
 294.744140625 -19.3740234375 280.140625 -32 266.37890625 -32 c 4
 259.37890625 -32 249.37890625 -30 243.37890625 -27 c 4
 226.37890625 -18 197.37890625 14 189.37890625 32 c 4
 165.37890625 88 162.37890625 195 162.37890625 265 c 4
 162.37890625 283 163.37890625 288 168.37890625 293 c 4
16.37890625 202 m 4
 16.37890625 212.76953125 16 221.928710938 16 229.450195312 c 4
 16 246.373046875 17.9169921875 255 30.37890625 255 c 4
 33.37890625 255 45.37890625 250 55.37890625 245 c 4
 67.37890625 239 79.37890625 229 88.37890625 217 c 4
 115.37890625 181 114.37890625 112 127.37890625 56 c 4
 130.37890625 43 132.37890625 24 132.37890625 15 c 4
 132.37890625 -7 122.37890625 -16 105.37890625 -19 c 4
 98.37890625 -20 90.37890625 -20 86.37890625 -18 c 4
 82.37890625 -16 68.37890625 -4 53.37890625 11 c 4
 32.37890625 32 24.37890625 42 20.37890625 57 c 4
 19.37890625 60 16.37890625 146 16.37890625 202 c 4
EndSplineSet
Validated: 1
EndChar

StartChar: comma
Encoding: 44 44 42
Width: 179
Flags: W
HStem: 4 310
VStem: 16 147<163.623 235.748>
LayerCount: 2
Fore
SplineSet
16 282 m 0
 16 300 30 314 49 314 c 0
 76 314 91 303 108 287 c 0
 118 278 130 263 134 255 c 0
 151 221 163 138 163 78 c 0
 163 47 162 13 144 4 c 0
 138 1 132 3 115 11 c 0
 100 19 89 28 80 41 c 0
 55 76 16 240 16 282 c 0
EndSplineSet
Validated: 1
EndChar

StartChar: hyphen
Encoding: 45 45 43
Width: 420
Flags: W
HStem: 449 110<41.3643 367.853>
LayerCount: 2
Fore
SplineSet
35.8642578125 557 m 4
 38.8642578125 558 66.8642578125 559 104.864257812 559 c 0
 160.864257812 559 259.864257812 558 291.864257812 557 c 4
 334.864257812 556 340.864257812 555 356.864257812 546 c 4
 373.864257812 536 399.864257812 511 403.864257812 490 c 4
 404.279296875 487.716796875 404.478515625 485.638671875 404.478515625 483.744140625 c 0
 404.478515625 467.376953125 389.581054688 464.688476562 369.864257812 462 c 4
 328.864257812 457 163.864257812 455 120.864257812 451 c 4
 103.864257812 449 91.8642578125 449 83.8642578125 449 c 0
 62.8642578125 449 53.8642578125 458 42.8642578125 469 c 4
 32.4658203125 480.140625 16 502.314453125 16 524.048828125 c 0
 16 531.577148438 17.9755859375 539.053710938 22.8642578125 546 c 4
 25.8642578125 551 31.8642578125 556 35.8642578125 557 c 4
EndSplineSet
Validated: 1
EndChar

StartChar: quotesingle
Encoding: 39 39 44
Width: 198
Flags: W
VStem: 16 166.159<729.268 791.479> 40.709 89<506.411 706.806>
LayerCount: 2
Fore
SplineSet
42.708984375 825 m 4x80
 44.708984375 827 49.708984375 828 63.708984375 828 c 0
 76.708984375 828 97.708984375 828 131.708984375 826 c 5
 146.708984375 810 l 6
 154.708984375 801 165.708984375 784 171.708984375 772 c 4
 177.888671875 758.403320312 182.159179688 750.91796875 182.159179688 743.642578125 c 0x80
 182.159179688 739.145507812 180.528320312 734.729492188 176.708984375 729 c 4
 169.708984375 719 143.708984375 715 135.708984375 707 c 4
 131.708984375 703 129.708984375 690 129.708984375 647 c 0
 129.708984375 581 135.708984375 535 150.708984375 488 c 4
 156.557617188 470.453125 160.716796875 461.353515625 160.716796875 452.192382812 c 0
 160.716796875 447.255859375 159.509765625 442.302734375 156.708984375 436 c 4
 152.708984375 427 137.708984375 418 125.708984375 418 c 4
 110.708984375 418 85.708984375 450 78.708984375 462 c 4
 65.708984375 484 59.708984375 522 50.708984375 548 c 4
 44.708984375 566 42.708984375 582 40.708984375 638 c 4x40
 38.708984375 702 37.708984375 710 27.708984375 736 c 4
 20.8837890625 753.630859375 16 766.0859375 16 777.96484375 c 0
 16 786.97265625 18.80859375 795.649414062 25.708984375 806 c 4
 30.708984375 814 39.708984375 822 42.708984375 825 c 4x80
EndSplineSet
Validated: 1
EndChar

StartChar: quotedbl
Encoding: 34 34 46
Width: 296
Flags: W
VStem: 89.6934 127<550.88 642.678>
LayerCount: 2
Fore
SplineSet
224.693359375 848 m 4
 231.693359375 850 239.693359375 851 242.693359375 849 c 4
 245.693359375 847 257.693359375 826 268.693359375 803 c 4
 277.693359375 784 280.693359375 767 280.693359375 752 c 0
 280.693359375 692 227.693359375 651 216.693359375 585 c 4
 211.693359375 556 207.693359375 542 183.693359375 534 c 4
 176.693359375 531 165.693359375 530 156.693359375 530 c 0
 129.693359375 530 110.693359375 549 98.693359375 566 c 4
 92.693359375 575 89.693359375 584 89.693359375 596 c 0
 89.693359375 600 89.693359375 605 89.693359375 609 c 0
 89.693359375 691 48.693359375 757 28.693359375 819 c 4
 23.693359375 835 17.693359375 857 16.693359375 867 c 4
 16.224609375 870.43359375 16 873.624023438 16 876.59375 c 0
 16 892.6484375 22.56640625 902.249023438 32.693359375 909 c 4
 42.693359375 916 47.693359375 917 58.693359375 911 c 4
 70.693359375 904 109.693359375 834 114.693359375 820 c 4
 121.693359375 802 135.693359375 774 143.693359375 758 c 4
 148.693359375 747 150.693359375 747 157.693359375 749 c 4
 163.693359375 751 205.693359375 826 207.693359375 832 c 4
 210.693359375 841 214.693359375 845 224.693359375 848 c 4
EndSplineSet
Validated: 1
EndChar

StartChar: exclam
Encoding: 33 33 47
Width: 504
Flags: W
HStem: 695 20G<350 366.5> 695 20G<350 366.5>
LayerCount: 2
Fore
SplineSet
85 332 m 0x80
 77 332 65 330 59 330 c 0
 40 330 29 355 23 373 c 4
 19 385 16 398 16 402 c 4
 16 406 30 423 47 439 c 4
 82 472 132 518 169 545 c 4
 181 554 225 596 267 638 c 4
 333 705 345 715 355 715 c 4
 378 715 387 707 404 694 c 4
 414 687 424 677 427 674 c 4
 430.28515625 669.893554688 431.546875 664.776367188 431.546875 659.270507812 c 0
 431.546875 651.366210938 428.947265625 642.662109375 426 635 c 4
 423 628 406 608 389 590 c 4
 342 542 311 522 260 471 c 4
 223 433 171 376 141 343 c 4
 134.09765625 335.330078125 126.606445312 327.661132812 115.369140625 327.661132812 c 0
 111.955078125 327.661132812 108.194335938 328.369140625 104 330 c 4
 100 331 93 332 85 332 c 0x80
400 444 m 4
 402.62890625 444.438476562 405.087890625 444.641601562 407.416015625 444.641601562 c 0
 421.028320312 444.641601562 430.190429688 437.685546875 443 430 c 4
 458 422 488 395 488 376 c 0
 488 370 484 360 480 353 c 4
 476 346 462 334 449 324 c 4
 436 314 390 272 346 230 c 4
 302 188 243 132 214 105 c 4
 185 78 156 54 149 51 c 4
 139 47 134 47 126 51 c 4
 119 54 110 66 98 88 c 4
 88 106 80 124 80 129 c 4
 80 134 82 141 84 145 c 4
 86 149 104 165 124 181 c 4
 144 197 213 262 276 326 c 4
 347 397 395 443 400 444 c 4
EndSplineSet
Validated: 1
EndChar

StartChar: slash
Encoding: 47 47 48
Width: 355
Flags: W
VStem: 22.0176 98<49.3112 142.156> 231.018 108<588.173 753.816>
LayerCount: 2
Fore
SplineSet
231.017578125 734 m 0
 231.017578125 739 231.017578125 743 231.017578125 747 c 0
 231.017578125 771 237.017578125 780 254.017578125 787 c 0
 260.65625 789.655273438 267.881835938 790.939453125 274.829101562 790.939453125 c 0
 283.579101562 790.939453125 291.885742188 788.90234375 298.017578125 785 c 0
 310.017578125 777 333.017578125 720 337.017578125 703 c 0
 339.017578125 697 339.017578125 692 339.017578125 686 c 0
 339.017578125 677 337.017578125 665 333.017578125 643 c 0
 322.017578125 588 304.017578125 530 292.017578125 477 c 0
 287.017578125 456 282.017578125 435 280.017578125 431 c 0
 278.017578125 427 187.017578125 401 177.017578125 358 c 0
 167.017578125 315 154.017578125 243 147.017578125 198 c 0
 140.017578125 153 131.017578125 111 128.017578125 104 c 0
 125.017578125 97 121.017578125 84 120.017578125 76 c 0
 118.017578125 63 115.017578125 59 97.017578125 46 c 0
 84.017578125 36 76.017578125 32 69.017578125 32 c 0
 47.017578125 32 28.017578125 73 22.017578125 94 c 0
 18.017578125 107 16.017578125 125 16.017578125 143 c 0
 16.017578125 148.599609375 16 153.93359375 16 159.038085938 c 0
 16 192.217773438 16.7509765625 215.733398438 28.017578125 240 c 0
 33.017578125 251 102.017578125 440 106.017578125 457 c 0
 110.017578125 474 195.017578125 532 198.017578125 542 c 0
 206.017578125 565 226.017578125 667 229.017578125 696 c 0
 230.017578125 707 231.017578125 722 231.017578125 734 c 0
EndSplineSet
Validated: 1
EndChar

StartChar: quotedblright
Encoding: 8221 8221 56
Width: 375
Flags: W
VStem: 16 124.64<707.357 781.689>
LayerCount: 2
Fore
SplineSet
16 819 m 0
 16 840 29 853 49 853 c 4
 55 853 68 849 77 844 c 4
 94 834 128 799 137 782 c 4
 140.286132812 775.426757812 140.639648438 765.51953125 140.639648438 754.909179688 c 0
 140.639648438 752.0078125 140.61328125 749.053710938 140.61328125 746.1015625 c 0
 140.61328125 730.279296875 141.370117188 714.490234375 151 707 c 4
 155 704 159 704 163 706 c 4
 167 708 181 723 195 739 c 4
 209 755 236 786 254 808 c 4
 272 830 289 849 293 851 c 4
 297 853 304 853 309 853 c 4
 314 853 322 849 328 843 c 4
 337 833 359 780 359 760 c 0
 359 741 353 733 329 706 c 4
 284 654 210 522 151 494 c 4
 139 488 123 483 117 483 c 4
 99 483 79 499 68 509 c 4
 57 520 39 549 39 570 c 0
 39 581 39 592 39 604 c 0
 39 666 35 734 21 789 c 4
 18 802 16 812 16 819 c 0
EndSplineSet
Validated: 1
EndChar

StartChar: quotedblleft
Encoding: 8220 8220 57
Width: 376
Flags: W
VStem: 234.885 125.115<707.317 781.735>
LayerCount: 2
Fore
SplineSet
360 819 m 0
 360 812 358 802 355 789 c 4
 341 734 336 666 336 604 c 0
 336 592 337 581 337 570 c 0
 337 549 318 520 307 509 c 4
 296 499 277 483 259 483 c 4
 253 483 237 488 225 494 c 4
 166 522 91 654 46 706 c 4
 22 733 16 741 16 760 c 0
 16 780 38 833 47 843 c 4
 53 849 61 853 66 853 c 4
 71 853 78 853 82 851 c 4
 86 849 104 830 122 808 c 4
 140 786 166 755 180 739 c 4
 194 723 208 708 212 706 c 4
 216 704 221 704 225 707 c 4
 233.564453125 713.661132812 234.884765625 726.887695312 234.884765625 740.862304688 c 0
 234.884765625 747.090820312 234.622070312 753.466796875 234.622070312 759.477539062 c 0
 234.622070312 768.326171875 235.190429688 776.380859375 238 782 c 4
 247 799 281 834 298 844 c 4
 307 849 321 853 327 853 c 4
 347 853 360 840 360 819 c 0
EndSplineSet
Validated: 1
EndChar

StartChar: quoteleft
Encoding: 8216 8216 58
Width: 213
Flags: W
LayerCount: 2
Fore
SplineSet
96.5439453125 840 m 0
 91.5439453125 838 76.5439453125 837 64.5439453125 837 c 0
 33.0068359375 836.147460938 16 829.483398438 16 803.383789062 c 0
 16 798.862304688 16.5107421875 793.758789062 17.5439453125 788 c 0
 22.5439453125 761 34.5439453125 737 54.5439453125 725 c 0
 78.5439453125 710 83.5439453125 683 83.5439453125 649 c 0
 83.5439453125 611 75.5439453125 569 75.5439453125 533 c 0
 75.5439453125 511 78.5439453125 492 87.5439453125 476 c 0
 97.5439453125 458 114.543945312 437 138.543945312 434 c 0
 151.543945312 433 116.543945312 434 125.543945312 440 c 4
 132.543945312 444 141.543945312 453 145.543945312 460 c 4
 170.543945312 499 186.543945312 685 196.543945312 746 c 0
 198.543945312 758 197.543945312 767 193.543945312 776 c 0
 186.543945312 793 162.543945312 821 145.543945312 829 c 0
 135.81640625 833.86328125 120.174804688 841.35546875 106.077148438 841.35546875 c 0
 102.783203125 841.35546875 99.57421875 840.947265625 96.5439453125 840 c 0
EndSplineSet
Validated: 5
EndChar

StartChar: backslash
Encoding: 92 92 78
Width: 356
Flags: W
LayerCount: 2
Fore
SplineSet
125 734 m 0
 125 722 126 707 127 696 c 0
 130 667 149 565 157 542 c 0
 160 532 246 474 250 457 c 0
 254 440 323 251 328 240 c 0
 339.266601562 215.733398438 340.017578125 192.217773438 340.017578125 159.038085938 c 0
 340.017578125 153.93359375 340 148.599609375 340 143 c 0
 340 125 338 107 334 94 c 0
 328 73 309 32 287 32 c 0
 280 32 271 36 258 46 c 0
 240 59 237 63 235 76 c 0
 234 84 231 97 228 104 c 0
 225 111 216 153 209 198 c 0
 202 243 189 315 179 358 c 0
 169 401 77 427 75 431 c 0
 73 435 68 456 63 477 c 0
 51 530 34 588 23 643 c 0
 19 665 16 677 16 686 c 0
 16 692 17 697 19 703 c 0
 23 720 46 777 58 785 c 0
 64.1318359375 788.90234375 72.4384765625 790.939453125 81.1884765625 790.939453125 c 0
 88.1357421875 790.939453125 95.361328125 789.655273438 102 787 c 0
 119 780 125 771 125 747 c 0
 125 743 125 739 125 734 c 0
EndSplineSet
Validated: 1
EndChar

StartChar: dollar
Encoding: 36 36 79
Width: 604
Flags: W
HStem: 446.792 95.4004<319.859 426.69>
VStem: 199.001 112.541<553.072 690.763> 199.023 120.476<375.513 436.491>
LayerCount: 2
Fore
SplineSet
219.938476562 709.456054688 m 0xc0
 226.428710938 712.0078125 238.725585938 714.215820312 247.252929688 714.360351562 c 0
 260.553710938 714.591796875 265.348632812 712.431640625 281.057617188 699.095703125 c 0
 291.127929688 690.552734375 303.340820312 676.224609375 308.197265625 667.255859375 c 0
 316.9140625 651.135742188 316.991210938 650.352539062 311.541992188 553.072265625 c 1xc0
 320.737304688 546.728515625 l 2
 325.791992188 543.240234375 332.638671875 541.200195312 335.953125 542.192382812 c 0
 359.579101562 549.307617188 445.727539062 555.776367188 474.614257812 559.040039062 c 0
 506.124023438 562.615234375 512.782226562 562.375976562 526.287109375 557.17578125 c 0
 545.399414062 549.818359375 569.833984375 521.739257812 580.603515625 506.288085938 c 0
 584.8984375 500.120117188 588.37890625 491.408203125 588.348632812 486.919921875 c 0
 588.024414062 438.825195312 519.91015625 363.9609375 494.3671875 328.3359375 c 0
 431.484375 240.696289062 338.55078125 146.5390625 267.681640625 61.775390625 c 0
 255.233398438 46.904296875 234.07421875 19.232421875 220.661132812 0.2958984375 c 0
 207.25390625 -18.6474609375 192.244140625 -36.1845703125 187.319335938 -38.671875 c 0
 182.38671875 -41.16796875 174.087890625 -43.248046875 168.874023438 -43.3037109375 c 0
 163.66796875 -43.3681640625 153.203125 -38.767578125 145.625976562 -33.087890625 c 0
 138.048828125 -27.416015625 127.864257812 -17.984375 123.0078125 -12.1435546875 c 0
 118.143554688 -6.2958984375 112.953125 5.0078125 111.463867188 12.984375 c 0
 109.8984375 21.400390625 110.171875 30.5205078125 112.1328125 34.728515625 c 0
 113.987304688 38.720703125 123.676757812 53.400390625 133.670898438 67.3525390625 c 0
 193.008789062 150.18359375 274.149414062 227.294921875 336.173828125 308.736328125 c 0
 350.138671875 327.081054688 437.859375 423.325195312 426.772460938 439.799804688 c 4
 425.09375 442.288085938 417.728515625 445.439453125 410.41015625 446.791992188 c 0
 390.698242188 450.431640625 326.2890625 443.873046875 319.499023438 437.080078125 c 0
 313.392578125 430.969726562 297.973632812 352.319335938 291.188476562 348.271484375 c 0
 282.676757812 343.200195312 280.17578125 343.647460938 253.469726562 355.095703125 c 0
 237.73046875 361.83984375 221.169921875 370.807617188 216.663085938 375.032226562 c 0
 205.833984375 385.181640625 199.0234375 401.541992188 199.0234375 422.583984375 c 0xa0
 199.0234375 435.263671875 197.48828125 439.696289062 192.129882812 442.520507812 c 0
 166.64453125 455.9140625 177.993164062 397.640625 173.182617188 379.080078125 c 0
 170.022460938 366.896484375 165.005859375 356.919921875 160.262695312 353.416015625 c 0
 153.165039062 348.16015625 150.52734375 348.240234375 128.74609375 354.3203125 c 0
 113.37890625 358.615234375 100.291992188 365.120117188 91.71875 372.736328125 c 0
 74.9580078125 387.618164062 84.6845703125 425.006835938 72.240234375 442.520507812 c 0
 68.69140625 447.50390625 62.048828125 452.736328125 57.4814453125 454.143554688 c 0
 52.9052734375 455.560546875 41.6953125 464.528320312 32.560546875 474.080078125 c 0
 20.0048828125 487.208007812 15.962890625 494.103515625 16 502.328125 c 0
 16.03125 508.303710938 18.857421875 516.103515625 22.27734375 519.6640625 c 0
 26.5029296875 524.047851562 33.47265625 526.032226562 43.9990234375 525.83984375 c 0
 52.6171875 525.688476562 61.3115234375 527.647460938 63.5830078125 530.255859375 c 0
 72.4130859375 540.4140625 60.796875 686.260742188 71.5556640625 698.0078125 c 0
 74.3984375 701.103515625 82.150390625 705 88.78515625 706.647460938 c 0
 96.2490234375 708.51171875 106.090820312 708.095703125 114.618164062 705.552734375 c 0
 122.203125 703.295898438 136.817382812 695.791992188 147.115234375 688.879882812 c 0
 160.90234375 679.624023438 167.703125 672.015625 172.948242188 660 c 0
 173.356445312 659.06640625 183.755859375 538.09375 186.103515625 537.720703125 c 0
 189.674804688 537.15234375 193.391601562 540.080078125 195.23828125 544.919921875 c 0
 200.548828125 558.833007812 200.57421875 648.834960938 199.000976562 667.807617188 c 0
 197.75390625 682.82421875 198.7421875 690.50390625 202.709960938 696.560546875 c 0
 205.688476562 701.103515625 213.440429688 706.912109375 219.938476562 709.456054688 c 0xc0
EndSplineSet
Validated: 524321
EndChar

StartChar: parenright
Encoding: 41 41 80
Width: 331
Flags: W
LayerCount: 2
Fore
SplineSet
66.75 769 m 0xd0
 84.75 769 102.810546875 764.375 124.75 766 c 0
 178.75 770 157.75 781 205.75 782 c 0
 228.548828125 782.474609375 263.75 745 277.75 728 c 0
 304.75 695 315.75 646 315.75 586 c 0xd0
 315.75 504 295.75 231 295.75 146 c 4
 295.75 124 296.75 101 300.75 80 c 4
 302.75 71 303.75 66 303.75 61 c 4
 303.75 48 281.75 18 274.75 12 c 4
 260.75 -1 208.681640625 -13.681640625 184.75 -19 c 4
 148.75 -27 154.75 -36 90.75 -36 c 4
 73.75 -36 68.75 -34 60.75 -28 c 4
 46.75 -18 19.75 15 16.75 35 c 4
 14.75 45 16.75 50 22.75 56 c 4
 28.75 61 31.7509765625 63.2734375 57.75 63 c 4
 152.75 62 182.75 18 187.75 182 c 4xe0
 189.6484375 244.260742188 193.75 511 201.75 576 c 0
 205.75 609 209.75 640 209.75 646 c 0
 209.75 652 208.36328125 663.298828125 202.75 664 c 0
 162.75 669 186.75 666 60.75 663 c 1
 47.75 674 l 2
 36.5400390625 683.715820312 16.9521484375 711.861328125 16.9521484375 734.646484375 c 0
 16.9521484375 742.350585938 19.19140625 749.44140625 24.75 755 c 0
 32.75 763 48.75 769 66.75 769 c 0xd0
EndSplineSet
Validated: 33
EndChar

StartChar: parenleft
Encoding: 40 40 81
Width: 331
Flags: W
LayerCount: 2
Fore
SplineSet
265 -22.9951171875 m 0xe0
 247 -22.9951171875 228.939453125 -18.3701171875 207 -19.9951171875 c 0
 153 -23.9951171875 174 -34.9951171875 126 -35.9951171875 c 0
 103.201171875 -36.4697265625 68 1.0048828125 54 18.0048828125 c 0
 27 51.0048828125 16 100.004882812 16 160.004882812 c 0xe0
 16 242.004882812 36 515.004882812 36 600.004882812 c 4
 36 622.004882812 35 645.004882812 31 666.004882812 c 4
 29 675.004882812 28 680.004882812 28 685.004882812 c 4
 28 698.004882812 50 728.004882812 57 734.004882812 c 4
 71 747.004882812 123.068359375 759.686523438 147 765.004882812 c 4
 183 773.004882812 177 782.004882812 241 782.004882812 c 4
 258 782.004882812 263 780.004882812 271 774.004882812 c 4
 285 764.004882812 312 731.004882812 315 711.004882812 c 4
 317 701.004882812 315 696.004882812 309 690.004882812 c 4
 303 685.004882812 299.999023438 682.731445312 274 683.004882812 c 4
 179 684.004882812 149 728.004882812 144 564.004882812 c 4xd0
 142.1015625 501.744140625 138 235.004882812 130 170.004882812 c 0
 126 137.004882812 122 106.004882812 122 100.004882812 c 0
 122 94.0048828125 123.38671875 82.7060546875 129 82.0048828125 c 0
 169 77.0048828125 145 80.0048828125 271 83.0048828125 c 1
 284 72.0048828125 l 2
 295.209960938 62.2890625 314.797851562 34.1435546875 314.797851562 11.3583984375 c 0
 314.797851562 3.654296875 312.55859375 -3.4365234375 307 -8.9951171875 c 0
 299 -16.9951171875 283 -22.9951171875 265 -22.9951171875 c 0xe0
EndSplineSet
Validated: 33
EndChar

StartChar: ampersand
Encoding: 38 38 83
Width: 690
Flags: W
LayerCount: 2
Fore
SplineSet
58.7978515625 283 m 0x8980
 58.7978515625 293.76953125 58.4189453125 302.928710938 58.4189453125 310.450195312 c 0
 58.4189453125 327.373046875 60.3359375 336 72.7978515625 336 c 0
 75.7978515625 336 87.7978515625 331 97.7978515625 326 c 0
 109.797851562 320 121.797851562 310 130.797851562 298 c 0
 153.881835938 267.221679688 156.499023438 212.3203125 164.896484375 162.045898438 c 1
 193.947265625 162.262695312 225.516601562 163.247070312 244.797851562 165 c 0
 325.797851562 172 404.797851562 172 484.797851562 192 c 0
 525.797851562 202 541.797851562 231 546.797851562 282 c 0
 548.5703125 300.315429688 549.819335938 320.811523438 550.905273438 342.278320312 c 1xa980
 485.576171875 339.436523438 375.625976562 338.146484375 341.797851562 335 c 0
 324.797851562 333 313.797851562 332 305.797851562 332 c 0xc180
 284.797851562 332 274.797851562 342 263.797851562 353 c 0
 253.399414062 364.140625 236.93359375 385.762695312 236.93359375 407.212890625 c 0
 236.93359375 414.643554688 238.909179688 422.053710938 243.797851562 429 c 0
 246.797851562 434 252.797851562 439 256.797851562 440 c 0xa180
 259.797851562 441 288.797851562 442 326.797851562 442 c 0xc180
 382.797851562 442 481.797851562 441 513.797851562 440 c 0
 535.088867188 439.504882812 547.063476562 439.009765625 555.669921875 437.543945312 c 1
 556.959960938 458.059570312 558.568359375 477.883789062 560.797851562 496 c 0
 564.797851562 529 568.797851562 560 568.797851562 566 c 0
 568.797851562 572 565.797851562 580 561.797851562 584 c 0
 555.797851562 590 544.797851562 591 486.797851562 594 c 0
 446.797851562 596 403.797851562 597 383.797851562 597 c 0xa940
 364.797851562 597 326.797851562 595 297.797851562 593 c 0
 272.420898438 590.543945312 254.416015625 588.088867188 146.139648438 585.083984375 c 1x9140
 145.618164062 565.430664062 143.971679688 544.958007812 146.797851562 528 c 0
 150.248046875 504.999023438 155.1640625 488.30078125 155.1640625 479.294921875 c 0
 155.1640625 465.625976562 140.559570312 453 126.797851562 453 c 0
 119.797851562 453 109.797851562 455 103.797851562 458 c 0
 86.7978515625 467 57.7978515625 499 49.7978515625 517 c 0
 32.515625 557.326171875 31.3076171875 577.428710938 31.986328125 611.661132812 c 1
 23.56640625 624.251953125 16 640.484375 16 654.646484375 c 0
 16 662.350585938 18.2392578125 669.44140625 23.7978515625 675 c 0x8340
 26.630859375 677.833007812 30.4677734375 680.416015625 35.041015625 682.569335938 c 0
 35.9287109375 684.693359375 37.14453125 686.346679688 38.7978515625 688 c 0
 42.7978515625 692 48.7978515625 695 52.7978515625 695 c 0x8540
 55.8525390625 695 63.5732421875 692.666992188 71.9501953125 688.892578125 c 0
 87.947265625 688.35546875 104.301757812 686 123.797851562 686 c 0x9140
 210.797851562 686 240.797851562 699 314.797851562 705 c 0
 329.797851562 706 366.797851562 707 407.797851562 707 c 0
 451.797851562 707 557.797851562 704 564.797851562 702 c 0
 586.797851562 696 622.797851562 665 636.797851562 648 c 0
 663.797851562 615 674.797851562 566 674.797851562 506 c 0x8940
 674.797851562 424 654.797851562 331 654.797851562 246 c 0
 654.797851562 224 655.797851562 201 659.797851562 180 c 0
 661.797851562 171 662.797851562 166 662.797851562 161 c 0
 662.797851562 148 640.797851562 118 633.797851562 112 c 0
 619.797851562 99 567.797851562 86 543.797851562 81 c 0
 528.797851562 78 499.797851562 74 477.797851562 73 c 0
 425.797851562 70 214.797851562 67 161.797851562 65 c 0
 160.311523438 64.8935546875 158.870117188 64.798828125 157.470703125 64.7138671875 c 0
 154.567382812 63.5078125 151.333984375 62.6240234375 147.797851562 62 c 0
 140.797851562 61 132.797851562 61 128.797851562 63 c 0
 128.356445312 63.220703125 127.79296875 63.5634765625 127.120117188 64.0185546875 c 0
 112.243164062 64.23046875 107.361328125 66.3271484375 99.7978515625 72 c 0
 85.7978515625 82 58.7978515625 115 55.7978515625 135 c 0
 53.8125 144.928710938 55.76953125 149.928710938 61.669921875 155.872070312 c 1
 60.4150390625 184.611328125 58.7978515625 241.889648438 58.7978515625 283 c 0x8980
EndSplineSet
Validated: 33
EndChar

StartChar: at
Encoding: 64 64 86
Width: 866
VWidth: 833
Flags: W
HStem: -22 135<403.825 536.298 539.532 682.892> -11 108<299.469 682.892> -2 106.733<168.271 250.566> 2 111<183.75 536.298 539.532 570.22> 693 20G<431.767 444.767> 693 20G<431.767 444.767>
LayerCount: 2
Fore
SplineSet
333.6953125 561 m 0x20
 336.104492188 558.951171875 351.459960938 535.516601562 371.138671875 503.0078125 c 0
 400.138671875 455.102539062 450.549804688 369.892578125 466.266601562 342 c 0
 487.677734375 304.697265625 489.9296875 299.045898438 490.516601562 280.698242188 c 0
 490.765625 260.9765625 482.842773438 225.788085938 466.950195312 211.491210938 c 0
 465.211914062 209.953125 463.537109375 208.70703125 461.916015625 207.725585938 c 0
 447.915039062 199.25 437.900390625 210.6015625 425.389648438 226.076171875 c 0
 405.822265625 250.995117188 349.981445312 339.243164062 313.434570312 394.670898438 c 1
 310.673828125 389.208007812 308.494140625 384.8046875 307.266601562 382 c 0
 273.266601562 304 221.266601562 227 182.266601562 151 c 0
 172.266601562 131 168.266601562 122 168.266601562 116 c 0
 168.266601562 107.397460938 174.662109375 104.733398438 183.305664062 104.733398438 c 0x20
 192.747070312 104.733398438 204.869140625 107.912109375 214.266601562 110 c 0
 224.266601562 112 236.266601562 113 251.266601562 113 c 0x10
 288.266601562 113 329.266601562 110 386.266601562 107 c 0
 454.266601562 104 496.266601562 97 538.266601562 97 c 0x40
 565.266601562 97 591.266601562 99 624.266601562 108 c 0
 635.266601562 111 647.266601562 113 655.266601562 113 c 0
 667.266601562 113 675.266601562 110 683.266601562 116 c 0
 690.787109375 121.231445312 693.603515625 127.638671875 693.603515625 134.41796875 c 0
 693.603515625 148.373046875 681.669921875 163.904296875 674.266601562 174 c 0
 669.266601562 181 655.266601562 204 644.266601562 225 c 0
 567.266601562 372 501.266601562 459 420.266601562 608 c 0
 402.266601562 641 388.266601562 671 388.266601562 676 c 0
 388.266601562 689 399.266601562 703 408.266601562 708 c 0
 413.266601562 711 426.266601562 713 437.266601562 713 c 0
 452.266601562 713 462.266601562 709 483.266601562 698 c 0
 507.266601562 685 510.266601562 683 522.266601562 660 c 0
 600.266601562 510 663.266601562 400 747.266601562 259 c 0
 773.266601562 216 783.266601562 193 813.266601562 152 c 0
 826.266601562 134 840.266601562 114 844.266601562 106 c 0
 852.266601562 93 852.266601562 92 846.266601562 78 c 0
 843.266601562 70 839.266601562 57 838.266601562 50 c 0
 836.266601562 34 804.266601562 -10 791.266601562 -13 c 0
 757.266601562 -20 727.266601562 -22 698.266601562 -22 c 0x88
 636.266601562 -22 581.266601562 -11 511.266601562 -11 c 0x40
 500.266601562 -11 479.266601562 -8 465.266601562 -5 c 0
 453.266601562 -2 385.266601562 2 295.266601562 2 c 0x10
 227.266601562 2 159.266601562 0 132.266601562 -2 c 0
 112.266601562 -4 98.2666015625 -5 89.2666015625 -5 c 0
 80.2666015625 -5 75.2666015625 -4 72.2666015625 -2 c 0
 68.2666015625 1 60.2666015625 9 56.2666015625 16 c 0
 52.2666015625 23 41.2666015625 38 32.2666015625 49 c 0
 22.7138671875 61.1005859375 16 69.14453125 16 78.041015625 c 0
 16 83.1142578125 18.1826171875 88.4638671875 23.2666015625 95 c 0
 27.2666015625 100 37.2666015625 119 46.2666015625 138 c 0
 55.2666015625 157 70.2666015625 183 79.2666015625 195 c 0
 128.266601562 260 165.266601562 348 207.266601562 414 c 0
 220.266601562 434 241.266601562 463 247.266601562 486 c 0
 251.859375 504.370117188 257.743164062 524.03125 271.6953125 533.688476562 c 1
 277.293945312 544.299804688 285.033203125 554.762695312 295.219726562 560.928710938 c 0
 301.66015625 564.827148438 309.079101562 567.008789062 317.553710938 566.424804688 c 0
 323.383789062 566.447265625 330.768554688 563.903320312 333.6953125 561 c 0x20
EndSplineSet
Validated: 33
EndChar

StartChar: .notdef
Encoding: 1114112 -1 87
Width: 505
Flags: W
LayerCount: 2
Fore
SplineSet
381 404 m 4
 383.62890625 404.438476562 386.087890625 404.641601562 388.416015625 404.641601562 c 4
 402.028320312 404.641601562 411.190429688 397.685546875 424 390 c 4
 439 382 469 355 469 336 c 4
 469 330 465 320 461 313 c 4
 457 306 443 294 430 284 c 4
 417 274 371 232 327 190 c 4
 283 148 224 92 195 65 c 4
 166 38 137 14 130 11 c 4
 120 7 115 7 107 11 c 4
 100 14 91 26 79 48 c 4
 69 66 61 84 61 89 c 4
 61 94 63 101 65 105 c 4
 67 109 85 125 105 141 c 4
 125 157 194 222 257 286 c 4
 328 357 376 403 381 404 c 4
86 422 m 0
 78 422 66 420 60 420 c 0
 41 420 30 445 24 463 c 0
 20 475 17 488 17 492 c 0
 17 496 31 513 48 529 c 0
 83 562 133 608 170 635 c 0
 182 644 226 686 268 728 c 0
 334 795 346 805 356 805 c 0
 379 805 388 797 405 784 c 0
 415 777 425 767 428 764 c 0
 431.28515625 759.893554688 432.546875 754.776367188 432.546875 749.270507812 c 0
 432.546875 741.366210938 429.947265625 732.662109375 427 725 c 0
 424 718 407 698 390 680 c 0
 343 632 312 612 261 561 c 0
 224 523 172 466 142 433 c 0
 135.09765625 425.330078125 127.606445312 417.661132812 116.369140625 417.661132812 c 0
 112.955078125 417.661132812 109.194335938 418.369140625 105 420 c 0
 101 421 94 422 86 422 c 0
361 604 m 0
 363.62890625 604.438476562 366.087890625 604.641601562 368.416015625 604.641601562 c 0
 382.028320312 604.641601562 391.190429688 597.685546875 404 590 c 0
 419 582 449 555 449 536 c 0
 449 530 445 520 441 513 c 0
 437 506 423 494 410 484 c 0
 397 474 351 432 307 390 c 0
 263 348 204 292 175 265 c 0
 146 238 117 214 110 211 c 0
 100 207 95 207 87 211 c 0
 80 214 71 226 59 248 c 0
 49 266 41 284 41 289 c 0
 41 294 43 301 45 305 c 0
 47 309 65 325 85 341 c 0
 105 357 174 422 237 486 c 0
 308 557 356 603 361 604 c 0
EndSplineSet
Validated: 1
EndChar

StartChar: numbersign
Encoding: 35 35 88
Width: 870
Flags: W
HStem: 180.742 140.8<223.265 292.348> 647.098 39.4189<612.831 673.676>
VStem: 330.823 102.157<159.836 199.379>
LayerCount: 2
Fore
SplineSet
435.328125 795.083984375 m 0
 441.434570312 794.2265625 452.494140625 790.458984375 459.892578125 786.712890625 c 0
 467.301757812 782.978515625 479.407226562 778.206054688 486.815429688 776.119140625 c 0
 498.166015625 772.903320312 501.504882812 770.5 508.225585938 760.696289062 c 0
 533.015625 724.4140625 588.13671875 575.96484375 565.603515625 541.383789062 c 0
 563.3203125 537.853515625 560.88671875 532.775390625 560.21875 530.090820312 c 0
 559.541015625 527.405273438 555.135742188 523.739257812 550.4296875 521.9453125 c 0
 545.712890625 520.163085938 538.561523438 518.572265625 534.5234375 518.424804688 c 0
 530.35546875 518.267578125 523.215820312 520.952148438 518.002929688 524.641601562 c 0
 512.962890625 528.20703125 507.4609375 531.151367188 505.76953125 531.185546875 c 0
 504.088867188 531.219726562 499.96484375 533.499023438 496.59375 536.250976562 c 0
 493.234375 539.014648438 488.709960938 540.075195312 488.032226562 541.23828125 c 0
 452.0390625 603 376.771484375 734.280273438 376.689453125 763.821289062 c 0
 376.689453125 767.702148438 379.436523438 775.193359375 382.806640625 780.484375 c 0
 386.177734375 785.775390625 391.411132812 790.729492188 394.4375 791.49609375 c 0
 397.473632812 792.274414062 405.411132812 793.741210938 412.077148438 794.779296875 c 0
 418.754882812 795.805664062 429.2109375 795.94140625 435.328125 795.083984375 c 0
173.237304688 774.583984375 m 1
 202.173828125 773.400390625 l 2
 222.505859375 772.564453125 232.209960938 771.131835938 234.783203125 768.571289062 c 0
 236.80859375 766.57421875 243.818359375 762.2421875 250.376953125 758.935546875 c 0
 260.608398438 753.76953125 266.803710938 751.829101562 266.983398438 740.094726562 c 0
 269.0390625 606 174.983398438 432.127929688 150.116210938 343.94921875 c 0
 147.928710938 336.186523438 145.657226562 326.958007812 145.053710938 323.438476562 c 0
 144.461914062 319.90625 142.716796875 308.364257812 141.1875 297.793945312 c 0
 131.89453125 233.443359375 148.275390625 176.15234375 164.245117188 128.743164062 c 0
 171.8046875 106.314453125 173.538085938 103.471679688 188.29296875 89.3125 c 0
 272.212890625 8.7529296875 398.951171875 52.509765625 483.6171875 106.032226562 c 0
 497.43359375 114.775390625 511.509765625 127.536132812 534.544921875 152.1875 c 0
 552.044921875 170.927734375 568.28515625 189.4296875 570.6328125 193.310546875 c 0
 580.817382812 210.099609375 590.655273438 238.776367188 603.952148438 257.333007812 c 0
 606.483398438 260.853515625 610.28515625 270.092773438 612.40625 277.84375 c 0
 614.517578125 285.60546875 618.092773438 293.672851562 620.342773438 295.793945312 c 0
 622.583007812 297.903320312 625.802734375 302.529296875 627.494140625 306.048828125 c 0
 636.299804688 324.551757812 677.79296875 320.752929688 705.797851562 308.793945312 c 4
 721.703125 302.001953125 723.544921875 300.377929688 731.50390625 286.172851562 c 0
 736.209960938 277.755859375 741.916992188 265.098632812 744.189453125 258.047851562 c 0
 746.978515625 249.360351562 747.571289062 243.786132812 746.020507812 240.740234375 c 0
 744.760742188 238.26953125 743.748046875 230.778320312 743.76953125 224.076171875 c 0
 743.791015625 217.250976562 742.208007812 209.635742188 740.18359375 206.770507812 c 0
 738.1796875 203.950195312 735.1328125 194.868164062 733.409179688 186.5859375 c 0
 731.686523438 178.3046875 729.446289062 171.095703125 728.43359375 170.565429688 c 0
 727.421875 170.024414062 729.013671875 165.625 726.66796875 162.533203125 c 0
 551.0390625 -69 296.532226562 -154.379882812 153.5078125 -6.697265625 c 0
 149.759765625 -2.81640625 142.673828125 1.22265625 137.751953125 2.283203125 c 0
 129.546875 4.04296875 32.666015625 144.143554688 31.36328125 149.073242188 c 0
 20.1259765625 191.346679688 12.65625 259.293945312 17.50390625 310.610351562 c 0
 18.64453125 322.602539062 21.154296875 337.596679688 23.08203125 343.94921875 c 0
 62.4482421875 473.416015625 131.0390625 600 159.453125 735.672851562 c 0
 160.111328125 738.818359375 162.91015625 748.940429688 166.5703125 758.033203125 c 2
 173.237304688 774.583984375 l 1
738.836914062 712.3984375 m 0
 766.514648438 711.495117188 767.279296875 711.314453125 785.76953125 700.7890625 c 0
 796.09765625 694.911132812 806.015625 690.149414062 807.79296875 690.206054688 c 0
 809.55859375 690.2734375 816.95703125 678.450195312 824.2265625 663.930664062 c 0
 831.495117188 649.41015625 839.529296875 628.888671875 842.092773438 618.3046875 c 0
 857.452148438 554.970703125 863.0390625 501 829.481445312 460.616210938 c 0
 827.073242188 457.71875 825.443359375 453.373046875 814.157226562 447.540039062 c 0
 805.703125 443.173828125 794.923828125 438.17578125 790.217773438 436.427734375 c 0
 785.51171875 434.66796875 778.349609375 432.354492188 774.310546875 431.260742188 c 0
 770.272460938 430.177734375 762.573242188 426.634765625 757.188476562 423.384765625 c 0
 750.338867188 419.267578125 745.19140625 417.935546875 740.0546875 418.962890625 c 0
 736.015625 419.763671875 729.694335938 421.670898438 725.989257812 423.205078125 c 0
 721.154296875 425.212890625 719.258789062 427.795898438 719.258789062 432.411132812 c 0
 719.258789062 435.931640625 720.841796875 441.4140625 722.780273438 444.583984375 c 0
 724.71875 447.765625 729.801757812 460.740234375 734.077148438 473.432617188 c 0
 748.684570312 516.797851562 752.920898438 580.493164062 735.563476562 626 c 0
 733.66796875 630.930664062 730.048828125 635.951171875 727.529296875 637.146484375 c 0
 718.151367188 641.53515625 639.630859375 645.145507812 636.06640625 647.09765625 c 0
 630.014648438 650.40234375 622.001953125 655.953125 618.265625 659.428710938 c 0
 613.30078125 664.053710938 611.48046875 668.138671875 611.469726562 674.715820312 c 0
 611.458984375 681.530273438 612.8046875 684.373046875 617.037109375 686.516601562 c 0
 648.922851562 702.745117188 697.084960938 713.734375 738.836914062 712.3984375 c 0
450.3515625 349.0703125 m 0
 451.557617188 349.0703125 463.015625 346.193359375 475.798828125 342.662109375 c 0
 490.940429688 338.48828125 503.098632812 333.287109375 510.669921875 327.758789062 c 0
 517.841796875 322.512695312 524.788085938 314.422851562 528.826171875 306.604492188 c 0
 560.8515625 244.490234375 438.720703125 191.275390625 431.849609375 331.380859375 c 1
 439.991210938 340.225585938 l 2
 444.471679688 345.087890625 449.133789062 349.0703125 450.3515625 349.0703125 c 0
251.916992188 321.249023438 m 0
 263.47265625 320.481445312 266.499023438 319.116210938 273.326171875 311.63671875 c 0
 277.87109375 306.650390625 283.6328125 302.9609375 286.77734375 303.017578125 c 0
 303.725585938 303.279296875 322.233398438 211.772460938 307.141601562 193.265625 c 0
 305.69921875 191.482421875 302.037109375 189.383789062 298.989257812 188.60546875 c 0
 295.942382812 187.828125 292.09765625 185.68359375 290.427734375 183.833984375 c 0
 288.758789062 181.971679688 281.608398438 179.75 274.543945312 178.870117188 c 0
 266.864257812 177.921875 261.2109375 178.3046875 260.478515625 179.83984375 c 0
 259.799804688 181.26171875 256.235351562 181.66796875 252.53125 180.7421875 c 0
 247.630859375 179.53515625 242.78515625 180.93359375 234.783203125 185.831054688 c 0
 220.16015625 194.795898438 186.365234375 285.90625 212.759765625 316.657226562 c 0
 214.95703125 319.20703125 220.879882812 321.181640625 227.44921875 321.541992188 c 0
 233.501953125 321.880859375 244.5078125 321.745117188 251.916992188 321.249023438 c 0
432.98046875 170.87109375 m 0
 432.98046875 147.280273438 432.75390625 146.287109375 425.840820312 139.4609375 c 0
 421.909179688 135.580078125 416.407226562 130.390625 413.606445312 127.919921875 c 0
 409.966796875 124.715820312 407.28515625 124.118164062 404.2265625 125.821289062 c 0
 401.770507812 127.198242188 398.389648438 127.265625 396.278320312 125.990234375 c 0
 394.25390625 124.772460938 391.77734375 124.275390625 390.776367188 124.884765625 c 0
 389.762695312 125.494140625 385.208007812 124.55859375 380.641601562 122.797851562 c 0
 372.866210938 119.78515625 371.7890625 120.079101562 363.604492188 127.276367188 c 0
 358.801757812 131.5078125 349.055664062 140.567382812 328.9921875 159.8359375 c 1
 330.823242188 175.609375 l 2
 340.495117188 258.466796875 432.98046875 244.75 432.98046875 170.87109375 c 0
EndSplineSet
Validated: 524321
EndChar

StartChar: bracketleft
Encoding: 91 91 89
Width: 860
Flags: W
HStem: 365.673 52.1748<117.395 244.192> 691.262 20G<75.7803 79.8071> 691.262 20G<75.7803 79.8071>
VStem: 16.0186 100.786<125.317 362.373 422.664 657.004> 26.1553 87.6963<500.837 705.936> 242.59 106.069<417.828 460.866> 500.774 108.883<356.111 396.529> 729.901 114.252<456.826 730.038> 729.977 107.165<115.881 387.875 456.846 730.038>
LayerCount: 2
Fore
SplineSet
755.264648438 763.33203125 m 4xc680
 762.405273438 763.33203125 773.454101562 762.154296875 779.833007812 760.70703125 c 4
 786.201171875 759.26953125 796.90625 755.5 803.618164062 752.34375 c 4
 810.329101562 749.178710938 819.327148438 744.232421875 823.612304688 741.357421875 c 4
 827.896484375 738.47265625 832.599609375 733.453125 834.0703125 730.193359375 c 4
 835.541992188 726.944335938 836.916015625 718.946289062 837.141601562 712.438476562 c 4xc680
 839.498046875 640.76953125 842.771484375 522.508789062 844.153320312 456.826171875 c 4
 844.390625 445.110351562 843.3046875 426.469726562 841.7265625 415.41015625 c 4
 840.1484375 404.338867188 837.850585938 380.908203125 836.626953125 363.340820312 c 4
 831.888671875 295.287109375 851.053710938 204.918945312 839.032226562 124.879882812 c 4
 837.420898438 114.143554688 834.995117188 107.353515625 831.6328125 104.166992188 c 4
 827.552734375 100.313476562 823.375976562 99.44921875 809.029296875 99.48046875 c 4
 798.453125 99.51171875 782.646484375 101.771484375 769.4609375 105.134765625 c 4
 757.1015625 108.301757812 745.094726562 112.935546875 741.982421875 115.748046875 c 4
 738.943359375 118.486328125 734.390625 127.66015625 731.85546875 136.126953125 c 4
 714.198242188 195.0625 731.837890625 296.161132812 727.227539062 362.736328125 c 4
 726.3046875 376.076171875 724.447265625 387.396484375 723.10546875 387.907226562 c 4
 699.322265625 396.934570312 668.196289062 368.880859375 642.590820312 379.908203125 c 4
 632.27734375 384.357421875 622.284179688 397.668945312 610.26953125 396.529296875 c 4
 609.936523438 396.499023438 609.657226562 389.552734375 609.657226562 381.084960938 c 4
 609.657226562 330.793945312 572.6484375 256.681640625 530.368164062 249.025390625 c 4
 526.341796875 248.296875 515.3671875 245.962890625 505.971679688 243.849609375 c 4
 403.295898438 220.709960938 298.159179688 285.26953125 265.171875 343.063476562 c 4
 262.895507812 347.051757812 259.62109375 352.978515625 257.90234375 356.237304688 c 4
 256.184570312 359.487304688 253.659179688 362.923828125 252.287109375 363.87109375 c 4
 250.921875 364.819335938 247.604492188 364.984375 244.919921875 364.235351562 c 4
 242.234375 363.485351562 234 360.1328125 226.622070312 356.779296875 c 4
 203.999023438 346.521484375 159.926757812 347.157226562 142.447265625 360.1328125 c 4
 138.419921875 363.120117188 131.837890625 365.620117188 127.811523438 365.672851562 c 4
 120.939453125 365.766601562 120.380859375 365.08984375 118.640625 354.498046875 c 4
 117.631835938 348.291992188 116.793945312 338.428710938 116.8046875 332.565429688 c 4
 116.8046875 266.30859375 152.581054688 144.276367188 121.37890625 83.46484375 c 4
 118.876953125 78.580078125 115.731445312 74.0498046875 114.388671875 73.404296875 c 4
 113.046875 72.748046875 109.481445312 73.810546875 106.463867188 75.7470703125 c 4
 103.177734375 77.8603515625 95.0810546875 79.318359375 86.341796875 79.37109375 c 4
 75.9892578125 79.43359375 70.6201171875 80.5888671875 68.0439453125 83.3271484375 c 4
 66.0244140625 85.462890625 59.990234375 90.25390625 54.62109375 93.9814453125 c 4
 48.83203125 98.001953125 41.8857421875 100.69921875 37.5361328125 100.615234375 c 4
 13.10546875 100.103515625 16.291015625 328.416992188 16.0185546875 390.551757812 c 4xd7
 15.44140625 520.922851562 28.6669921875 561.7734375 26.1552734375 666.876953125 c 4
 25.767578125 683.581054688 26.0146484375 684.340820312 35.302734375 695.317382812 c 4
 44.2802734375 705.8984375 45.568359375 706.584960938 56.4462890625 706.553710938 c 4
 62.82421875 706.543945312 68.5908203125 707.594726562 69.2568359375 708.896484375 c 4
 69.9326171875 710.19921875 73.7666015625 711.26171875 77.7939453125 711.26171875 c 4
 81.8203125 711.26171875 89.7783203125 709.084960938 95.4892578125 706.428710938 c 4
 102.920898438 702.9609375 107.291015625 698.775390625 110.952148438 691.630859375 c 4
 115 683.706054688 115.602539062 679.98828125 113.862304688 673.385742188 c 4
 112.606445312 668.584960938 113.760742188 662.827148438 113.8515625 659.19140625 c 4
 115.033203125 612.515625 111.639648438 565.983398438 111.790039062 497.649414062 c 4
 111.88671875 455.774414062 112.938476562 425.32421875 114.388671875 422.51171875 c 4
 116.482421875 418.461914062 119.232421875 417.784179688 133.297851562 417.84765625 c 4
 162.979492188 417.983398438 207.240234375 416.765625 231.497070312 418.274414062 c 4
 241.890625 418.918945312 242.482421875 419.3359375 242.58984375 426.052734375 c 4
 242.653320312 429.958007812 243.587890625 436.8828125 244.662109375 441.4453125 c 4
 245.735351562 445.99609375 248.538085938 455.586914062 250.901367188 462.741210938 c 4
 295.216796875 597.1328125 531.754882812 573.94140625 586.828125 464.376953125 c 4
 589.73828125 458.607421875 593.549804688 454.868164062 597.458007812 453.97265625 c 4
 607.775390625 451.606445312 639.362304688 455.840820312 645.65234375 458.784179688 c 4
 653.90625 462.646484375 718.05078125 458.203125 729.901367188 456.826171875 c 5xcf
 728.721679688 517.983398438 728.704101562 650.501953125 729.9765625 712.438476562 c 4
 730.084960938 717.645507812 728.44140625 724.5703125 726.3359375 727.831054688 c 4
 723.190429688 732.693359375 722.986328125 735.411132812 725.229492188 743.138671875 c 4
 726.809570312 748.575195312 730.975585938 754.801757812 735.120117188 757.926757812 c 4
 740.532226562 762.008789062 745.471679688 763.33203125 755.264648438 763.33203125 c 4xc680
348.659179688 409.494140625 m 4
 348.680664062 400.3828125 350.731445312 385.470703125 353.234375 376.358398438 c 4
 367.887695312 322.765625 441.09765625 284.798828125 475.59375 347.948242188 c 4
 479.856445312 355.758789062 484.645507812 363.755859375 486.234375 365.704101562 c 4
 487.82421875 367.662109375 491.796875 375.6484375 495.072265625 383.458984375 c 4
 498.86328125 392.509765625 500.924804688 401.944335938 500.774414062 409.494140625 c 4
 498.557617188 521.380859375 348.44140625 499.883789062 348.659179688 409.494140625 c 4
EndSplineSet
Validated: 524321
EndChar

StartChar: bracketright
Encoding: 93 93 90
Width: 832
Flags: W
VStem: 31.6348 90.3916<161.02 466.834> 42.6006 94.0977<158.064 437.988> 706.096 97.0684<232.604 530.411>
LayerCount: 2
Fore
SplineSet
401.282226562 744.392578125 m 0x60
 401.875 745.013671875 403.993164062 745.51953125 405.981445312 745.509765625 c 0
 407.969726562 745.509765625 413.192382812 744.548828125 417.580078125 743.3828125 c 0
 421.96875 742.20703125 428.788085938 737.995117188 432.734375 734.012695312 c 0
 438.83984375 727.836914062 440.135742188 724.48828125 441.541015625 711.321289062 c 0
 454.80859375 587.9765625 459.403320312 419.904296875 477.40234375 295.922851562 c 0
 477.756835938 293.484375 550.346679688 298.4609375 562.841796875 289.680664062 c 0
 582.888671875 275.549804688 673.349609375 231.33203125 700.51171875 231.33203125 c 0
 701.7578125 231.33203125 704.768554688 234.41015625 704.940429688 238.508789062 c 0
 708.573242188 325.069335938 711.405273438 398.9609375 708.65625 467.4609375 c 0
 707.913085938 486.280273438 706.758789062 508.623046875 706.095703125 517.120117188 c 0
 705.1015625 530.014648438 705.573242188 533.208984375 708.977539062 536.500976562 c 0
 711.407226562 538.840820312 716.288085938 540.383789062 721.038085938 540.317382812 c 0
 725.436523438 540.249023438 733.651367188 541.75390625 739.294921875 543.646484375 c 0
 748.774414062 546.83203125 750.3515625 546.79296875 759.831054688 543.219726562 c 0
 765.4765625 541.083007812 774.713867188 535.646484375 780.368164062 531.12109375 c 0
 786.012695312 526.595703125 792.780273438 521.090820312 795.411132812 518.896484375 c 0
 798.997070312 515.90625 800.61328125 511.049804688 801.8984375 499.465820312 c 0
 802.833007812 490.970703125 803.395507812 472.09375 803.1640625 457.529296875 c 0
 802.041015625 386.72265625 862.712890625 76.4365234375 731.059570312 131.512695312 c 0
 724.237304688 134.366210938 718.004882812 141.766601562 714.19921875 143.146484375 c 0
 634.112304688 172.169921875 556.825195312 191.892578125 497.4375 234.633789062 c 0
 493.048828125 237.790039062 487.393554688 240.08203125 484.89453125 239.712890625 c 0
 481.549804688 239.237304688 480.46484375 237.576171875 480.836914062 233.538085938 c 0
 481.108398438 230.5078125 481.880859375 223.555664062 482.543945312 218.087890625 c 0
 483.20703125 212.630859375 484.19140625 202.203125 484.732421875 194.919921875 c 0
 485.275390625 187.637695312 486.881835938 178.6953125 488.298828125 175.053710938 c 0
 504.862304688 132.15234375 503.21875 68.8408203125 488.02734375 38.23828125 c 0
 484.974609375 32.0732421875 481.418945312 28.6640625 476.288085938 26.9365234375 c 0
 472.23046875 25.576171875 463.78515625 24.857421875 457.508789062 25.333984375 c 0
 451.232421875 25.8095703125 443.971679688 27.421875 441.37109375 28.9072265625 c 0
 438.76953125 30.3916015625 431.639648438 34.59765625 425.534179688 38.23828125 c 0
 419.427734375 41.8798828125 409.927734375 48.822265625 404.415039062 53.6767578125 c 0
 380.4609375 74.814453125 378.70703125 138.373046875 378.70703125 176.161132812 c 0
 378.716796875 181.625976562 377.963867188 187.385742188 377.049804688 188.978515625 c 0
 375.684570312 191.307617188 372.78125 191.162109375 361.674804688 188.190429688 c 0
 350.829101562 185.297851562 345.908203125 182.413085938 337.955078125 174.276367188 c 0
 291.571289062 126.810546875 230.204101562 108.92578125 175.721679688 66.8828125 c 0
 173.84375 65.435546875 164.60546875 63.0185546875 155.185546875 61.513671875 c 0
 142.250976562 59.455078125 133.765625 59.376953125 120.389648438 61.2021484375 c 0
 93.8916015625 64.8046875 50.392578125 93.24609375 43.07421875 111.607421875 c 0
 41.9892578125 114.345703125 39.4072265625 117.317382812 37.33984375 118.23046875 c 0
 35.2607421875 119.142578125 32.69921875 122.124023438 31.634765625 124.8515625 c 0xa0
 30.2998046875 128.280273438 31.0126953125 132.7265625 33.9248046875 139.194335938 c 0
 36.2548828125 144.359375 38.9560546875 155.032226562 39.919921875 162.915039062 c 0
 40.8935546875 170.809570312 42.099609375 191.171875 42.6005859375 208.1640625 c 0x60
 44.890625 285.577148438 31.9267578125 350.889648438 31.9267578125 417.8046875 c 0
 31.9267578125 422.66015625 30.5302734375 431.107421875 28.8232421875 436.565429688 c 0
 27.1162109375 442.03125 23.53125 450.469726562 20.859375 455.32421875 c 0
 18.1787109375 460.1796875 16 465.393554688 16 466.907226562 c 0
 16 468.432617188 20.1162109375 472.646484375 25.1376953125 476.288085938 c 0
 30.841796875 480.434570312 37.0380859375 482.9296875 41.677734375 482.94921875 c 0
 45.7548828125 482.96875 55.2548828125 484.541015625 62.7763671875 486.434570312 c 0
 70.7490234375 488.436523438 79.8076171875 489.290039062 84.45703125 488.483398438 c 0
 88.845703125 487.708007812 97.82421875 484.405273438 104.411132812 481.133789062 c 0
 114.002929688 476.365234375 116.3828125 474.09375 116.392578125 469.666015625 c 0
 116.40234375 466.63671875 116.774414062 458.198242188 117.206054688 450.916992188 c 0
 117.647460938 443.633789062 118.611328125 435.680664062 119.354492188 433.252929688 c 0
 120.087890625 430.826171875 121.29296875 421.892578125 122.026367188 413.396484375 c 0xa0
 127.056640625 355.088867188 112.591796875 251.090820312 133.283203125 196.026367188 c 0
 135.33203125 190.559570312 136.868164062 182.123046875 136.698242188 177.267578125 c 0
 136.52734375 172.412109375 137.280273438 164.197265625 138.375 159.021484375 c 0
 139.458984375 153.846679688 141.387695312 149.631835938 142.643554688 149.65234375 c 0
 143.8984375 149.680664062 150.184570312 152.924804688 156.622070312 156.856445312 c 0
 163.059570312 160.797851562 174.858398438 168.702148438 182.862304688 174.412109375 c 0
 220.4765625 201.280273438 280.569335938 280.469726562 336.579101562 281.155273438 c 0
 344.111328125 281.243164062 354.634765625 281.989257812 359.967773438 282.806640625 c 0
 368.834960938 284.165039062 371.975585938 284.79296875 371.828125 292.57421875 c 0
 370.015625 388.712890625 356.129882812 502.375 355.107421875 617.53125 c 0
 354.706054688 661.545898438 353.490234375 693.6875 352.094726562 696.969726562 c 0
 350.809570312 700.0078125 349.03125 710.436523438 346.571289062 737.799804688 c 1
 356.403320312 739.693359375 l 2
 361.815429688 740.731445312 373.876953125 741.955078125 383.215820312 742.421875 c 0
 392.545898438 742.877929688 400.6796875 743.760742188 401.282226562 744.392578125 c 0x60
EndSplineSet
Validated: 524321
EndChar

StartChar: asterisk
Encoding: 42 42 91
Width: 883
Flags: W
HStem: 301.45 81.0898<163.785 366.029 402.123 447.789> 317.372 57.7812<138.563 163.008> 680.267 16.4707<347.08 374.709> 718.087 65.918<346.36 577.609>
LayerCount: 2
Fore
SplineSet
427.266601562 784.004882812 m 0x30
 615.530273438 769.859375 722.016601562 733 803.819335938 618.396484375 c 0
 807.9609375 612.59375 816.516601562 607.987304688 818.110351562 604.203125 c 0
 1087.54394531 -35.5595703125 173.016601562 -270 18.142578125 326.248046875 c 0
 12.9306640625 346.314453125 18.6962890625 377.232421875 20.0478515625 393.474609375 c 0
 35.69921875 580.22265625 122.80859375 709.716796875 335.40625 707.852539062 c 1
 333.66015625 716.48828125 l 2
 332.564453125 721.955078125 329.458007812 726.953125 318.4765625 735.028320312 c 1
 327.978515625 744.844726562 l 2
 333.193359375 750.241210938 339.9921875 756.958984375 343.087890625 759.77734375 c 0
 346.173828125 762.5859375 356.580078125 767.913085938 366.221679688 771.62109375 c 0
 375.861328125 775.329101562 388.651367188 779.047851562 394.630859375 779.876953125 c 0
 400.612304688 780.70703125 407.14453125 782.2265625 409.135742188 783.235351562 c 0
 411.134765625 784.254882812 419.296875 784.594726562 427.266601562 784.004882812 c 0x30
407.560546875 716.408203125 m 0
 396.791992188 714.768554688 388.311523438 712.080078125 385.09765625 709.282226562 c 0
 381.607421875 706.251953125 376.627929688 704.823242188 369.75390625 704.874023438 c 0
 364.157226562 704.923828125 355.772460938 705.743164062 351.111328125 706.703125 c 2
 342.65234375 708.442382812 l 1
 352.962890625 699.3671875 357.581054688 696.737304688 359.581054688 696.737304688 c 0
 361.571289062 696.737304688 365.922851562 695.19921875 369.243164062 693.329101562 c 0
 372.573242188 691.450195312 375.287109375 688.642578125 375.265625 687.08203125 c 0
 375.254882812 685.5234375 368.731445312 682.454101562 360.762695312 680.266601562 c 0
 352.803710938 678.077148438 346.280273438 675.267578125 346.280273438 674.018554688 c 0
 346.280273438 672.768554688 342.205078125 671.170898438 337.213867188 670.470703125 c 0
 332.224609375 669.760742188 319.987304688 666.583007812 310.016601562 663.393554688 c 0
 300.046875 660.205078125 289.704101562 657.186523438 287.04296875 656.676757812 c 0
 284.383789062 656.166992188 277.434570312 653.478515625 271.603515625 650.690429688 c 0
 189.338867188 611.408203125 149.0546875 508.266601562 133.28515625 401.420898438 c 0
 131.913085938 392.056640625 131.40234375 382.090820312 132.157226562 379.272460938 c 0
 133.423828125 374.564453125 134.60546875 374.245117188 147.426757812 375.153320312 c 0x70
 155.440429688 375.734375 162.068359375 377.413085938 163.05859375 379.1328125 c 0
 176.245117188 401.747070312 339.01953125 382.04296875 366.029296875 382.540039062 c 0xb0
 378.436523438 382.770507812 394.684570312 383.280273438 402.123046875 383.6796875 c 0
 410.422851562 384.110351562 416.965820312 383.310546875 419.051757812 381.591796875 c 0
 421.745117188 379.362304688 424.905273438 379.551757812 434.5234375 382.491210938 c 0
 441.174804688 384.51953125 447.153320312 386.499023438 447.82421875 386.8984375 c 0
 448.484375 387.288085938 446.037109375 390.716796875 442.375976562 394.514648438 c 0
 438.7265625 398.313476562 435.608398438 402.19140625 435.4609375 403.130859375 c 0
 435.30078125 404.060546875 434.779296875 407.897460938 434.2890625 411.646484375 c 0
 433.811523438 415.395507812 431.756835938 419.232421875 429.735351562 420.162109375 c 0
 427.713867188 421.102539062 426.096679688 423.151367188 426.139648438 424.709960938 c 0
 426.181640625 426.26953125 423.850585938 429.587890625 420.95703125 432.0859375 c 0
 371.274414062 474.979492188 410.75390625 589.771484375 467.75390625 592.678710938 c 0
 475.393554688 593.05859375 481.619140625 593.88671875 481.586914062 594.5078125 c 0
 481.5546875 595.13671875 485.641601562 597.465820312 490.6640625 599.684570312 c 0
 662.181640625 675.455078125 703.989257812 476.084960938 657.016601562 382 c 4
 655.833007812 379.62890625 693.830078125 379.505859375 703.599609375 378.373046875 c 0
 710.495117188 377.573242188 744.986328125 376.034179688 752.137695312 374.96484375 c 2
 765.129882812 373.024414062 l 1
 762.48046875 404.719726562 761.224609375 424.650390625 760.6171875 437.774414062 c 0
 760.022460938 450.887695312 758.596679688 470.817382812 757.446289062 482.0625 c 0
 756.30859375 493.307617188 753.63671875 509.159179688 751.520507812 517.275390625 c 0
 749.413085938 525.401367188 747.177734375 534.596679688 746.572265625 537.724609375 c 0
 745.965820312 540.84375 742.677734375 547.23046875 739.283203125 551.91796875 c 0
 735.87890625 556.606445312 733.122070312 562.732421875 733.155273438 565.552734375 c 0
 733.185546875 568.359375 730.068359375 577.305664062 726.227539062 585.421875 c 0
 722.375 593.546875 716.012695312 602.743164062 712.07421875 605.872070312 c 0
 708.137695312 608.991210938 704.1796875 613.848632812 703.286132812 616.65625 c 0
 681.303710938 686.858398438 530.346679688 712.586914062 440.567382812 718.086914062 c 0
 431.926757812 718.6171875 417.073242188 717.857421875 407.560546875 716.408203125 c 0
521.57421875 407.099609375 m 0
 524.86328125 403.090820312 526.938476562 402.760742188 539.142578125 404.250976562 c 0
 549.399414062 405.499023438 556.349609375 408.1484375 565.947265625 414.474609375 c 0
 589.458984375 429.934570312 606.20703125 457.083007812 612.318359375 486.040039062 c 0
 613.872070312 493.40625 614.021484375 501.443359375 612.711914062 507.05078125 c 0
 588.299804688 611.30078125 447.6171875 497.57421875 521.57421875 407.099609375 c 0
138.489257812 314.374023438 m 0
 136.807617188 312.594726562 132.208007812 302.010742188 135.190429688 289.166015625 c 0
 239.016601562 -158 785.016601562 129 751.573242188 294.00390625 c 0
 751.5078125 294.329101562 741.986328125 295.083984375 730.686523438 295.8125 c 0
 719.384765625 296.541992188 692.73046875 297.532226562 671.44921875 298.022460938 c 0
 514.7265625 301.620117188 394.01171875 308.989257812 226.604492188 302.859375 c 2
 187.92578125 301.450195312 l 1xb0
 157.014648438 313.794921875 146.5234375 317.372070312 144.681640625 317.372070312 c 0
 142.831054688 317.372070312 140.04296875 316.022460938 138.489257812 314.374023438 c 0
EndSplineSet
Validated: 524321
EndChar

StartChar: percent
Encoding: 37 37 92
Width: 911
Flags: W
HStem: 338.061 58.7842<383.434 457.263> 491.427 8.00781<238.113 243.26> 724.486 2.93066<152.156 171.761>
VStem: 329.05 102.783<-51.5911 160.096>
LayerCount: 2
Fore
SplineSet
166.6328125 726.158203125 m 0
 167.392578125 726.861328125 169.701171875 727.42578125 171.760742188 727.416992188 c 0
 173.809570312 727.407226562 182.41015625 725.946289062 190.854492188 724.161132812 c 0
 199.299804688 722.3828125 209.939453125 719.346679688 214.483398438 717.419921875 c 0
 219.0390625 715.501953125 224.353515625 712.3515625 226.297851562 710.415039062 c 0
 228.252929688 708.487304688 232.236328125 706.12890625 235.159179688 705.169921875 c 0
 238.081054688 704.219726562 241.16015625 701.861328125 241.981445312 699.93359375 c 0
 257.778320312 663.352539062 255.033203125 628.440429688 265.49609375 574.436523438 c 0
 266.337890625 570.037109375 265.995117188 564.633789062 264.715820312 562.43359375 c 0
 263.446289062 560.234375 258.267578125 556.546875 253.212890625 554.25 c 0
 248.159179688 551.944335938 239.766601562 549.533203125 234.56640625 548.891601562 c 0
 226.891601562 547.940429688 223.344726562 548.706054688 215.669921875 552.973632812 c 0
 210.469726562 555.860351562 204.354492188 560.295898438 202.076171875 562.830078125 c 0
 199.809570312 565.364257812 195.50390625 568.55859375 192.508789062 569.931640625 c 0
 189.513671875 571.313476562 183.564453125 574.235351562 179.290039062 576.434570312 c 0
 155.830078125 588.479492188 109.873046875 667.079101562 118.54296875 700.435546875 c 0
 119.40625 703.736328125 124.377929688 710.40625 129.587890625 715.263671875 c 0
 138.44921875 723.509765625 139.926757812 724.1171875 152.15625 724.486328125 c 0
 159.353515625 724.706054688 165.86328125 725.462890625 166.6328125 726.158203125 c 0
205.924804688 529.865234375 m 0
 218.11328125 522.790039062 223.865234375 517.809570312 228.9609375 509.93359375 c 0
 232.694335938 504.161132812 236.8125 499.434570312 238.11328125 499.434570312 c 0
 239.413085938 499.434570312 243.40625 500.974609375 246.973632812 502.857421875 c 0
 251.5078125 505.2421875 259.474609375 501.559570312 270.01953125 506.254882812 c 0
 296.3984375 518 333.510742188 487.192382812 339.720703125 471.43359375 c 0
 356.209960938 429.591796875 397.534179688 393.853515625 459.049804688 396.844726562 c 0
 479.3515625 397.838867188 485.341796875 397.35546875 501.5859375 393.38671875 c 0
 511.9765625 390.842773438 524.736328125 386.733398438 529.936523438 384.250976562 c 0
 535.13671875 381.779296875 540.721679688 377.431640625 542.34375 374.588867188 c 0
 544.455078125 370.901367188 547.138671875 369.44140625 551.797851562 369.44140625 c 0
 555.365234375 369.450195312 562.28125 370.34765625 567.158203125 371.447265625 c 0
 574.573242188 373.111328125 581.208007812 372.291992188 607.916015625 366.431640625 c 0
 625.4609375 362.5859375 645.927734375 356.690429688 653.405273438 353.346679688 c 0
 660.873046875 349.993164062 673.799804688 342.1171875 682.120117188 335.842773438 c 0
 690.450195312 329.568359375 702.368164062 318.5859375 708.608398438 311.431640625 c 0
 720.450195312 297.875976562 733.965820312 267.774414062 727.578125 246.91015625 c 0
 725.809570312 241.146484375 723.04296875 234.633789062 721.442382812 232.43359375 c 0
 719.840820312 230.234375 714.380859375 227.250976562 709.3046875 225.798828125 c 0
 701.328125 223.528320312 698.936523438 223.6171875 691.802734375 226.415039062 c 0
 687.247070312 228.192382812 679.76953125 231.6328125 675.163085938 234.044921875 c 0
 601.900390625 272.465820312 590.987304688 332.21875 526.587890625 238.435546875 c 0
 524.321289062 235.135742188 521.1796875 227.936523438 519.599609375 222.436523438 c 0
 516.916015625 213.083007812 515.823242188 212.017578125 502.658203125 205.936523438 c 0
 494.919921875 202.35546875 488.326171875 199.407226562 487.993164062 199.372070312 c 0
 487.670898438 199.328125 482.616210938 202.470703125 476.771484375 206.3515625 c 0
 470.926757812 210.22265625 463.481445312 213.381835938 460.236328125 213.35546875 c 0
 456.981445312 213.337890625 450.60546875 215.599609375 446.049804688 218.37109375 c 0
 441.504882812 221.15234375 434.870117188 225.006835938 431.302734375 226.93359375 c 0
 427.736328125 228.861328125 424.813476562 231.10546875 424.802734375 231.932617188 c 0
 424.79296875 232.759765625 423.108398438 236.358398438 421.048828125 239.931640625 c 0
 411.385742188 256.688476562 443.430664062 299.176757812 450.44921875 311.93359375 c 0
 454.526367188 319.360351562 457.604492188 325.881835938 457.283203125 326.435546875 c 0
 456.94921875 326.981445312 450.303710938 328.240234375 442.514648438 329.234375 c 0
 434.71484375 330.228515625 423.014648438 332.868164062 416.514648438 335.103515625 c 0
 410.014648438 337.330078125 402.578125 338.666992188 399.978515625 338.060546875 c 0
 397.377929688 337.461914062 389.931640625 339.098632812 383.431640625 341.6953125 c 0
 312.704101562 370.08203125 306.793945312 420.642578125 258.288085938 466.434570312 c 0
 253.619140625 470.834960938 247.971679688 478.252929688 245.736328125 482.926757812 c 0
 243.489257812 487.598632812 240.858398438 491.426757812 239.891601562 491.426757812 c 0
 238.913085938 491.426757812 238.11328125 489.630859375 238.11328125 487.431640625 c 0
 238.11328125 485.231445312 189.5234375 481.157226562 187.901367188 478.376953125 c 0
 186.279296875 475.595703125 183.356445312 473.325195312 181.401367188 473.325195312 c 0
 164.231445312 473.40234375 132.373046875 404.211914062 135.006835938 382.430664062 c 0
 137.653320312 360.907226562 185.258789062 345.254882812 197.448242188 325.432617188 c 0
 203.209960938 316.086914062 209.928710938 306.85546875 212.3828125 304.936523438 c 0
 214.837890625 303.009765625 216.865234375 298.961914062 216.896484375 295.934570312 c 0
 216.927734375 292.749023438 213.693359375 286.853515625 209.221679688 281.907226562 c 0
 204.967773438 277.216796875 199.892578125 273.424804688 197.948242188 273.4765625 c 0
 195.993164062 273.530273438 191.208007812 271.567382812 187.30859375 269.122070312 c 0
 180.861328125 265.073242188 179.321289062 264.879882812 170.1796875 267.052734375 c 0
 143.040039062 273.499023438 25.1123046875 347.009765625 25.484375 371.931640625 c 0
 25.4951171875 373.313476562 23.373046875 378.258789062 20.7529296875 382.931640625 c 0
 18.142578125 387.61328125 16 392.330078125 16 393.430664062 c 0
 16 394.530273438 19.7333984375 397.01171875 24.2880859375 398.930664062 c 0
 28.8544921875 400.857421875 33.6181640625 404.685546875 34.8759765625 407.431640625 c 0
 36.134765625 410.185546875 41.96875 416.256835938 47.8447265625 420.930664062 c 0
 82.55859375 448.583007812 88.935546875 497.469726562 112.875976562 539.431640625 c 1
 149.3984375 550 172.99609375 548.958984375 205.924804688 529.865234375 c 0
151.865234375 233.82421875 m 0
 158.365234375 234.166992188 167.93359375 234.106445312 173.1328125 233.692382812 c 0
 178.333007812 233.279296875 187.37109375 230.858398438 193.215820312 228.32421875 c 0
 199.071289062 225.78125 205.9765625 223.24609375 208.576171875 222.68359375 c 0
 211.176757812 222.12109375 217.4375 217.78125 231.685546875 204.432617188 c 1
 226.442382812 101.198242188 204.3984375 24 173.9765625 -64.56640625 c 0
 173.083984375 -67.1640625 173.061523438 -76.3134765625 171.698242188 -84.568359375 c 0
 170.346679688 -92.8134765625 168.776367188 -101.368164062 168.21484375 -103.567382812 c 0
 167.653320312 -105.767578125 164.54296875 -108.688476562 161.297851562 -110.0625 c 0
 158.063476562 -111.443359375 149.296875 -112.561523438 141.830078125 -112.552734375 c 0
 131.533203125 -112.54296875 125.948242188 -111.346679688 118.783203125 -107.615234375 c 0
 113.583007812 -104.905273438 105.876953125 -102.661132812 101.654296875 -102.625976562 c 0
 97.431640625 -102.590820312 93.4482421875 -101.666992188 92.79296875 -100.56640625 c 0
 92.1484375 -99.466796875 88.1552734375 -97.36328125 83.9326171875 -95.9033203125 c 0
 79.7099609375 -94.43359375 73.3251953125 -90.384765625 69.7578125 -86.900390625 c 0
 66.1796875 -83.4150390625 60.466796875 -77.8837890625 61.8232421875 -75.064453125 c 0
 86.3984375 -24 122.3984375 156 124.8671875 216.435546875 c 0
 125.009765625 219.916015625 129.848632812 224.857421875 133.467773438 227.814453125 c 0
 138.481445312 231.90625 142.879882812 233.340820312 151.865234375 233.82421875 c 0
747.328125 191.576171875 m 0
 749.927734375 192.587890625 758.96484375 192.966796875 767.41015625 192.39453125 c 0
 775.865234375 191.831054688 790.748046875 189.54296875 800.493164062 187.298828125 c 0
 814.948242188 183.981445312 819.618164062 181.869140625 825.827148438 175.83203125 c 0
 830.0078125 171.766601562 834.521484375 165.28125 835.852539062 161.435546875 c 0
 837.18359375 157.58203125 838.286132812 150.163085938 838.286132812 144.935546875 c 0
 838.296875 139.708007812 837.506835938 135.080078125 836.528320312 134.6484375 c 0
 819.5 127.122070312 830.69921875 -44.6689453125 837.048828125 -59.5673828125 c 0
 838.931640625 -63.9677734375 842.903320312 -68.658203125 845.888671875 -69.9951171875 c 0
 848.86328125 -71.333984375 857.682617188 -74.748046875 865.471679688 -77.572265625 c 0
 873.271484375 -80.40625 883.110351562 -85.8359375 895.0078125 -96.5634765625 c 1
 890.879882812 -110.93359375 l 2
 887.634765625 -122.206054688 885.2109375 -126.32421875 879.658203125 -130.055664062 c 0
 875.7578125 -132.668945312 864.587890625 -137.52734375 854.842773438 -140.853515625 c 0
 845.098632812 -144.1796875 833.3984375 -148.2890625 828.853515625 -149.99609375 c 0
 821.16796875 -152.8828125 819.327148438 -152.802734375 802.853515625 -148.826171875 c 0
 793.108398438 -146.4765625 783.541015625 -144.583984375 781.596679688 -144.62890625 c 0
 779.641601562 -144.672851562 770.759765625 -139.947265625 761.856445312 -134.138671875 c 0
 751.352539062 -127.274414062 743.334960938 -120.05859375 739.028320312 -113.564453125 c 0
 734.306640625 -106.436523438 731.686523438 -98.68359375 729.928710938 -86.56640625 c 0
 720.862304688 -23.8642578125 730.3984375 88 720.194335938 144.43359375 c 0
 718.6875 152.765625 715.34765625 156.666015625 716.377929688 163.43359375 c 0
 717.16796875 168.668945312 720.46484375 175.559570312 724.260742188 179.924804688 c 0
 727.848632812 184.034179688 733.443359375 187.923828125 736.69921875 188.56640625 c 0
 739.943359375 189.200195312 744.728515625 190.5546875 747.328125 191.576171875 c 0
358.627929688 176.431640625 m 0
 363.172851562 177.91796875 370.087890625 179.23828125 373.98828125 179.370117188 c 0
 377.877929688 179.501953125 382.672851562 178.181640625 384.618164062 176.431640625 c 0
 386.5625 174.6796875 391.88671875 172.700195312 396.431640625 172.040039062 c 0
 400.9765625 171.37109375 408.953125 169.28515625 414.153320312 167.393554688 c 0
 419.353515625 165.501953125 425.448242188 162.262695312 427.71484375 160.1953125 c 0
 429.971679688 158.126953125 431.823242188 153.286132812 431.833007812 149.432617188 c 0
 432.078125 61.8310546875 453.311523438 -17.818359375 457.033203125 -90.5693359375 c 0
 457.802734375 -105.934570312 457.26171875 -108.609375 451.375 -118.474609375 c 0
 447.797851562 -124.4765625 442.212890625 -131.0234375 438.967773438 -133.038085938 c 0
 435.712890625 -135.044921875 427.205078125 -137.262695312 420.061523438 -137.966796875 c 0
 409.703125 -138.978515625 404.54296875 -138.353515625 394.663085938 -134.904296875 c 0
 387.841796875 -132.51953125 381.456054688 -130.715820312 380.478515625 -130.900390625 c 0
 379.51171875 -131.084960938 372.0546875 -129.958007812 363.921875 -128.401367188 c 0
 355.415039062 -126.7734375 349.143554688 -124.502929688 349.153320312 -123.068359375 c 0
 349.163085938 -121.686523438 345.502929688 -118.536132812 341.021484375 -116.063476562 c 0
 336.528320312 -113.590820312 331.868164062 -109.762695312 330.641601562 -107.563476562 c 0
 329.36328125 -105.239257812 327.216796875 -98.890625 330.361328125 -94.5654296875 c 0
 358.3984375 -56 330.3984375 70 329.049804688 133.43359375 c 0
 328.936523438 138.782226562 325.150390625 146.810546875 324.870117188 152.151367188 c 0
 324.412109375 160.99609375 325.087890625 162.39453125 332.44140625 167.657226562 c 0
 336.881835938 170.833984375 342.736328125 173.500976562 345.44140625 173.587890625 c 0
 348.14453125 173.666992188 354.073242188 174.952148438 358.627929688 176.431640625 c 0
484.571289062 5.728515625 m 0
 518.658203125 17.0556640625 622.6640625 3.1298828125 656.359375 -10.54296875 c 0
 662.203125 -12.91796875 669.245117188 -15.9287109375 672.000976562 -17.2138671875 c 0
 674.756835938 -18.5068359375 679.25 -21.3671875 681.984375 -23.56640625 c 0
 686.01953125 -26.8134765625 686.477539062 -28.318359375 684.376953125 -31.56640625 c 0
 682.962890625 -33.765625 682.453125 -38.04296875 683.252929688 -41.0693359375 c 0
 684.0546875 -44.0888671875 683.596679688 -48.59375 682.234375 -51.06640625 c 0
 680.861328125 -53.5390625 673.424804688 -58.4931640625 651.626953125 -68.5693359375 c 1
 581.7578125 -68.76953125 525.451171875 -69.966796875 484.446289062 -47.4140625 c 0
 477.625 -43.6484375 469.419921875 -37.638671875 466.205078125 -34.0654296875 c 0
 462.991210938 -30.4921875 460.349609375 -25.7666015625 460.330078125 -23.56640625 c 0
 460.319335938 -21.3671875 461.619140625 -16.25390625 463.220703125 -12.197265625 c 0
 464.823242188 -8.140625 468.056640625 -3.1943359375 470.396484375 -1.197265625 c 0
 472.736328125 0.80078125 479.111328125 3.916015625 484.571289062 5.728515625 c 0
EndSplineSet
Validated: 524321
EndChar
